# Blender 3.3.15
# www.blender.org
mtllib blend3dmodel-Apple-06.mtl
o Apple-06
v 0.262440 0.785077 -0.132886
v 0.213401 0.800129 -0.127436
v 0.217681 0.780802 -0.201548
v 0.221755 0.796879 -0.033115
v 0.245152 0.809163 0.080988
v 0.462965 0.583930 0.061217
v 0.151038 0.796203 -0.115363
v 0.108298 0.776255 -0.280420
v 0.314000 0.777904 0.029736
v 0.112990 0.787751 -0.221916
v -0.328495 0.614222 -0.321513
v 0.088532 0.786126 -0.183815
v -0.052955 0.792506 -0.257882
v -0.012234 0.766889 -0.331234
v -0.048300 0.792886 -0.220286
v 0.162704 0.806962 0.110351
v 0.141581 0.817028 0.175354
v 0.266495 0.798102 0.155379
v 0.167566 0.785090 -0.019835
v -0.017332 0.783578 -0.295550
v 0.319904 0.749283 -0.152399
v -0.151692 0.790792 -0.256875
v 0.172805 0.813918 0.214069
v 0.092979 0.816285 0.235787
v 0.360063 0.741386 -0.025975
v 0.042300 0.775168 -0.162586
v 0.095284 0.775162 -0.127908
v 0.220601 0.784409 0.257543
v -0.178274 0.807014 -0.178811
v -0.154285 0.804057 -0.133001
v 0.258907 0.751215 -0.235733
v 0.263500 0.704819 -0.298874
v 0.124434 0.785105 0.082971
v -0.004523 0.826232 0.242747
v -0.034109 0.805492 0.168703
v -0.048547 0.781955 -0.170507
v 0.336051 0.702884 -0.222013
v -0.011842 0.822233 0.296101
v 0.343831 0.756075 0.120167
v 0.055946 0.804118 0.172338
v -0.239456 0.806611 -0.078468
v 0.377877 0.713734 -0.094408
v 0.147854 0.789888 0.300537
v -0.147768 0.730750 -0.354995
v -0.162237 0.786128 -0.062830
v -0.133025 0.779750 -0.084064
v 0.033726 0.741823 -0.113703
v 0.398991 0.704693 0.058656
v -0.041864 0.754995 -0.124944
v 0.027446 0.798022 0.341243
v -0.289160 0.792554 -0.128498
v 0.150840 0.725118 -0.347528
v -0.133599 0.813605 0.254389
v 0.112717 0.753389 -0.026167
v -0.012218 0.729395 -0.379346
v -0.106407 0.811749 0.207575
v -0.016250 0.765695 -0.149414
v 0.059255 0.741436 -0.094293
v -0.217216 0.781938 -0.245293
v 0.108293 0.744586 0.011928
v -0.192169 0.815375 0.210439
v -0.214035 0.803514 0.094167
v -0.200980 0.797510 0.047285
v 0.185896 0.670987 -0.381146
v 0.311148 0.757551 0.202960
v -0.254066 0.807844 0.138622
v 0.378169 0.713683 0.154865
v -0.352568 0.782463 0.006285
v 0.045281 0.754249 0.096586
v -0.179560 0.763845 -0.301165
v 0.019789 0.767698 0.121018
v 0.414225 0.674431 -0.067952
v -0.263931 0.800530 0.213951
v -0.116289 0.763334 0.093258
v -0.211329 0.801538 0.273901
v -0.149697 0.167783 0.371577
v -0.247372 0.741211 -0.289655
v -0.311265 0.755048 -0.201480
v -0.128374 0.753951 0.040426
v -0.061172 0.737394 0.090794
v 0.125941 0.085309 0.332557
v 0.009649 0.695257 0.059944
v 0.119159 0.753569 0.370887
v 0.076532 0.735129 0.052255
v 0.073388 0.642591 -0.434612
v 0.354150 0.707369 0.214230
v 0.000653 0.706966 -0.088883
v -0.223531 0.129796 -0.326232
v 0.028450 0.687353 -0.059189
v -0.096852 0.773825 0.366047
v 0.401152 0.639572 -0.191423
v -0.431287 0.548536 -0.220516
v -0.264605 0.786178 0.263232
v 0.434458 0.296110 -0.217919
v -0.039448 0.719164 -0.087765
v -0.004117 0.756115 0.393358
v -0.070781 0.695443 -0.011417
v -0.200970 0.780723 0.325439
v 0.280579 0.595009 -0.372622
v -0.031075 0.667024 -0.428017
v -0.222942 0.052088 0.055878
v 0.293113 0.655919 -0.323387
v 0.213710 0.016675 0.095845
v 0.301533 0.116900 -0.257964
v -0.404887 0.477141 -0.277569
v 0.391576 0.538835 -0.285838
v -0.334882 0.781691 0.143462
v 0.048772 0.097996 0.360860
v -0.128606 0.448277 -0.478868
v -0.204706 0.694530 -0.362532
v 0.377123 0.627021 -0.249148
v 0.461261 0.253318 0.027246
v -0.360123 0.562994 -0.312805
v 0.253932 0.408226 0.413508
v 0.003375 0.437191 -0.498854
v -0.072410 0.808265 0.319654
v -0.392356 0.746526 -0.015343
v 0.160408 0.022314 0.066690
v 0.154159 0.623962 0.439576
v -0.344022 0.108842 -0.005239
v -0.464933 0.619702 -0.057723
v 0.016317 0.252918 -0.476848
v -0.448937 0.477210 -0.206157
v -0.478450 0.520791 -0.103879
v -0.287404 0.672872 0.366447
v -0.433304 0.260191 -0.114080
v 0.344761 0.653438 0.281610
v 0.277987 0.029392 -0.091932
v -0.326705 0.107485 -0.140475
v -0.297503 0.325271 -0.376948
v 0.042113 0.661576 -0.013915
v -0.405078 0.570000 0.284536
v 0.438954 0.471794 -0.230020
v -0.397114 0.700007 -0.145013
v -0.033031 0.659758 -0.037908
v 0.265990 0.118909 0.275844
v -0.438810 0.687809 -0.008246
v 0.195384 0.348854 0.444690
v 0.299269 0.699682 0.293041
v 0.480937 0.304500 -0.029773
v 0.408369 0.352662 0.242042
v -0.075978 0.710510 0.036176
v 0.481656 0.361048 0.042774
v 0.039386 0.660575 0.009093
v -0.359216 0.459940 -0.336812
v -0.020648 0.686073 0.051116
v -0.039876 0.703996 0.016976
v -0.212030 0.232761 -0.405267
v 0.154517 0.572528 -0.444829
v -0.400365 0.741647 0.057426
v -0.127838 0.570133 -0.457224
v 0.435955 0.636922 0.108099
v 0.333363 0.055537 -0.018131
v 0.379656 0.154218 0.149529
v -0.090642 0.731477 -0.050911
v 0.344941 0.573929 -0.328961
v 0.081016 0.288961 -0.480765
v -0.477560 0.350011 0.023916
v -0.157175 0.645348 -0.416334
v -0.455989 0.363601 -0.139562
v -0.150766 0.433276 0.470240
v -0.014426 0.072308 -0.088908
v 0.228939 0.241571 0.390471
v 0.241217 0.750245 0.293551
v -0.463701 0.344667 0.113145
v 0.329109 0.633169 -0.308589
v 0.412280 0.630125 0.189637
v 0.264934 0.348272 -0.414181
v -0.072573 0.707996 0.020041
v 0.379285 0.282838 -0.293515
v -0.212975 0.741951 0.362648
v -0.329347 0.758558 0.228471
v -0.462440 0.483296 0.179059
v -0.107835 0.062489 -0.324712
v -0.161050 0.045846 -0.265729
v -0.416919 0.696005 0.159169
v -0.370871 0.285592 -0.280923
v 0.374103 0.353762 -0.324824
v 0.412346 0.174437 -0.144248
v 0.005568 0.252424 0.452085
v 0.366662 0.161433 -0.223864
v -0.417288 0.649930 -0.174984
v 0.329554 0.285060 0.318424
v -0.259690 0.273069 0.373596
v -0.050249 0.695135 0.043654
v 0.452910 0.218074 -0.065381
v -0.446063 0.575826 0.200708
v -0.128551 0.728267 0.400184
v -0.330659 0.715080 -0.240066
v 0.449915 0.613133 -0.064834
v 0.343070 0.175536 0.235219
v -0.399342 0.376792 0.280020
v -0.374124 0.149702 0.060564
v 0.324218 0.312693 -0.361077
v -0.017095 0.652492 -0.043036
v 0.166056 0.680055 0.404210
v -0.306433 0.149197 -0.252005
v -0.245432 0.796600 -0.176404
v 0.096586 0.204910 -0.451658
v -0.025227 0.089828 -0.381819
v -0.044497 0.678746 -0.007752
v 0.259054 0.170927 0.324132
v -0.323188 0.164137 0.212424
v -0.248213 0.082701 -0.233212
v -0.484963 0.426750 0.084342
v -0.301119 0.802173 0.030608
v 0.101250 0.288211 0.460475
v 0.397398 0.567086 0.256742
v 0.188687 0.131681 0.345660
v 0.238829 0.612478 0.395233
v -0.319768 0.133111 -0.203520
v -0.073678 0.027779 -0.274945
v 0.007600 0.457791 0.493599
v -0.218777 0.561829 -0.427560
v 0.141420 0.443902 0.475401
v -0.043684 0.663873 -0.025297
v -0.281893 0.524386 -0.398303
v -0.045696 0.270913 -0.479558
v 0.078476 0.076326 -0.073747
v -0.381919 0.170418 -0.125901
v -0.422815 0.274836 0.157800
v -0.377393 0.733870 0.188416
v 0.003163 0.579160 -0.471037
v 0.216910 0.067027 -0.269814
v 0.072342 0.354106 0.480772
v 0.001065 0.658629 0.005822
v -0.446816 0.287067 0.092154
v 0.083633 0.715716 0.413075
v -0.287382 0.179665 0.280913
v -0.202061 0.039700 -0.193055
v 0.385448 0.122167 -0.128269
v 0.446603 0.543612 0.173055
v -0.165099 0.065764 0.248253
v -0.055494 0.168116 0.401089
v 0.091664 0.040865 -0.312933
v -0.024851 0.028576 0.264688
v 0.482654 0.510568 -0.045379
v -0.262830 0.403061 0.419427
v -0.023242 0.676412 0.021187
v -0.196702 0.152420 0.336886
v 0.022343 0.655451 0.023183
v -0.394281 0.240695 -0.208349
v -0.204381 0.322794 0.427848
v 0.003548 0.643837 -0.036940
v -0.267544 0.649452 -0.355068
v -0.170671 0.810044 0.172445
v -0.450684 0.605065 -0.124361
v -0.393617 0.640604 -0.229085
v -0.287117 0.068358 -0.113990
v 0.302347 0.061599 0.134348
v 0.013896 0.020017 -0.170047
v -0.318652 0.090129 0.046605
v -0.193175 0.036629 -0.060564
v 0.317281 0.521883 0.358620
v -0.086061 0.121058 0.359289
v 0.408409 0.147301 0.042324
v 0.333565 0.489259 -0.368478
v 0.231135 0.027662 0.135394
v -0.020922 0.692398 0.437670
v -0.224719 0.072353 0.194089
v -0.367105 0.709379 0.243902
v 0.480995 0.480019 -0.103060
v 0.104439 0.029003 -0.150100
v 0.212622 0.075432 0.271914
v 0.236918 0.689673 0.355903
v -0.019660 0.647091 -0.016485
v 0.019083 0.645189 -0.018474
v -0.103127 0.089171 0.320144
v 0.104467 0.542306 0.477722
v 0.365226 0.091308 0.027412
v -0.390428 0.234487 0.183214
v -0.431377 0.230576 -0.021319
v -0.014647 0.639124 -0.025612
v -0.250807 0.060127 0.085268
v -0.492862 0.502851 0.031099
v -0.283972 0.741343 0.314931
v -0.308576 0.201551 -0.300539
v 0.175335 0.228992 0.414540
v -0.210576 0.326472 -0.437193
v -0.007719 0.121850 0.376923
v -0.089052 0.788442 0.146125
v -0.036611 0.125796 -0.411971
v 0.122798 0.040528 0.278735
v -0.473247 0.414935 -0.126034
v 0.015408 0.124078 -0.003821
v -0.359119 0.159165 0.134197
v 0.119212 0.451677 -0.482472
v 0.435982 0.565142 -0.184586
v 0.138979 0.011004 0.131574
v 0.054459 0.109497 0.017612
v -0.375520 0.141920 -0.001026
v -0.134844 0.039669 0.120593
v 0.448870 0.320910 0.144410
v 0.174432 0.119281 -0.367219
v -0.191190 0.029845 -0.132070
v -0.008126 0.122722 0.001081
v -0.461452 0.339113 -0.111683
v 0.392163 0.111738 -0.041709
v -0.415003 0.203255 0.045104
v 0.023673 0.010852 0.184451
v 0.159707 0.026923 -0.118292
v 0.421618 0.227883 0.138619
v -0.075235 0.044582 -0.097820
v -0.179475 0.119321 -0.347500
v 0.033562 0.530788 -0.484332
v -0.122227 0.044194 0.227292
v 0.014912 0.123258 0.041645
v -0.342081 0.686311 0.303563
v -0.456884 0.283377 0.043579
v 0.229412 0.510703 -0.429978
v -0.020157 0.131778 -0.020324
v 0.314003 0.606121 0.336967
v -0.085856 0.665670 0.444265
v 0.012463 0.129790 -0.031826
v 0.158618 0.021079 0.049696
v 0.044140 0.126176 -0.040323
v -0.015038 0.044562 -0.117324
v 0.007448 0.011828 0.206413
v -0.064840 0.012730 -0.224203
v 0.015790 0.061383 0.320225
v -0.105026 0.028152 0.190479
v -0.446168 0.676121 0.069357
v 0.135880 0.011090 0.168080
v 0.045480 0.133211 -0.020784
v -0.042029 0.121684 -0.037696
v 0.034743 0.634773 0.464483
v -0.182691 0.669594 0.423033
v -0.295864 0.068440 -0.036904
v -0.400551 0.633377 0.260997
v -0.128907 0.054413 0.252968
v -0.457327 0.625470 0.119612
v -0.062449 0.039108 0.265333
v 0.032467 0.057221 0.083369
v 0.472274 0.431513 0.115185
v -0.327942 0.617848 0.358976
v -0.224532 0.044448 -0.156963
v 0.379554 0.447371 -0.326736
v 0.479286 0.479338 0.067279
v -0.255658 0.611383 0.413096
v -0.088389 0.490999 -0.482999
v 0.320343 0.110782 0.190777
v -0.482714 0.581066 0.001443
v 0.493070 0.405341 -0.030035
v -0.019697 0.587693 0.477920
v 0.188312 0.540843 0.445511
v 0.224920 0.436773 -0.441905
v -0.331280 0.254460 -0.310815
v -0.191640 0.556557 0.454090
v 0.207666 0.017110 -0.029485
v 0.249412 0.028721 -0.135542
v 0.225118 0.485141 0.433543
v -0.036103 0.132050 0.031027
v 0.202786 0.039395 -0.211012
v -0.115099 0.564597 0.471917
v -0.048795 0.103522 0.354091
v 0.032709 0.162188 0.408537
v 0.420555 0.397373 -0.267060
v -0.060755 0.127248 -0.007936
v -0.480506 0.378409 -0.071757
v 0.092791 0.182909 0.416092
v 0.347549 0.079852 0.053132
v 0.238353 0.170012 -0.362062
v 0.123420 0.361544 -0.482257
v 0.412729 0.455789 0.253826
v -0.137055 0.237146 -0.443959
v -0.043898 0.133070 -0.018439
v 0.308828 0.396200 -0.390588
v 0.460184 0.396558 -0.195210
v -0.476006 0.552845 0.121106
v -0.142416 0.355570 -0.471545
v -0.108060 0.146621 -0.409083
v 0.223834 0.110941 -0.321498
v 0.057715 0.489527 0.491858
v 0.477491 0.415522 -0.145808
v 0.188352 0.214272 -0.419073
v -0.070599 0.085967 -0.049369
v -0.037159 0.017167 0.163926
v -0.356792 0.157602 -0.166859
v 0.088704 0.082192 -0.022334
v -0.277578 0.138209 -0.277842
v 0.097207 0.029514 0.084723
v -0.249637 0.421456 -0.425495
v -0.388134 0.291125 0.248497
v -0.274409 0.059909 0.007565
v 0.216456 0.020902 0.015567
v 0.340548 0.090232 -0.161472
v 0.043911 0.094692 -0.389475
v 0.412876 0.237112 -0.219433
v -0.341403 0.243262 0.276547
v -0.073775 0.015712 -0.173225
v -0.249675 0.207861 -0.364211
v -0.106730 0.073970 -0.024484
v 0.133278 0.023819 0.234968
v 0.305520 0.062688 -0.162691
v -0.366216 0.527697 0.342017
v -0.300808 0.101934 0.134418
v 0.111606 0.022820 -0.193204
v 0.053682 0.014119 -0.241023
v 0.176007 0.054959 0.274214
v -0.167992 0.043324 0.076576
v -0.038698 0.203440 -0.454688
v 0.272442 0.332370 0.388364
v 0.163224 0.025930 -0.174398
v -0.132949 0.038522 -0.070145
v 0.000165 0.021926 -0.283349
v 0.273685 0.024203 -0.017900
v -0.124312 0.024411 -0.119628
v -0.007864 0.024937 0.139018
v 0.350141 0.419740 0.329073
v -0.410771 0.407631 -0.266795
v -0.489319 0.488482 -0.052897
v -0.047205 0.050696 0.092338
v -0.337219 0.426477 -0.358372
v 0.053933 0.065481 0.062386
v -0.295070 0.524080 0.405242
v -0.365056 0.749319 -0.114098
v 0.246745 0.024635 0.064348
v -0.220323 0.040550 -0.034627
v -0.108400 0.060968 0.061345
v -0.217417 0.054321 0.121273
v 0.186867 0.033689 0.223134
v -0.150874 0.021482 -0.177856
v -0.054136 0.028080 -0.133232
v -0.153293 0.042197 -0.031908
v -0.252091 0.476348 0.433282
v -0.272462 0.110265 0.211429
v -0.217384 0.045375 0.019774
v -0.085445 0.056919 0.283978
v -0.181419 0.050885 0.031549
v -0.249611 0.046655 -0.064977
v -0.217838 0.113865 0.279284
v -0.141977 0.058180 0.023098
v 0.157297 0.029048 0.014966
v 0.489314 0.382063 -0.081711
v -0.314288 0.264151 0.322539
v 0.059900 0.022453 -0.173885
v 0.251251 0.057875 0.203833
v -0.270781 0.076385 0.120043
v -0.012684 0.351738 -0.495282
v -0.078302 0.072193 0.061045
v 0.473055 0.298807 -0.124017
v 0.324224 0.169670 -0.283824
v -0.305472 0.078888 -0.077916
v 0.077794 0.053728 -0.108732
v 0.144506 0.033172 -0.261109
v 0.448655 0.401697 0.176707
v 0.226409 0.024205 -0.115879
v -0.170863 0.052582 0.203148
v 0.045156 0.064227 -0.101611
v -0.020263 0.086236 0.067366
v -0.056976 0.125483 0.025198
v -0.384226 0.151642 -0.039671
v 0.041875 0.060831 -0.348255
v 0.103431 0.055401 0.025402
v 0.140030 0.037589 -0.055036
v -0.413148 0.227314 0.111995
v 0.183144 0.296969 -0.451575
v -0.361713 0.431813 0.343633
v -0.381610 0.369999 -0.299802
v -0.436342 0.369942 -0.215122
v 0.111861 0.079790 -0.359050
v 0.278638 0.237797 -0.369924
v 0.016969 0.130072 -0.052674
v 0.086866 0.009444 0.147088
v 0.370615 0.094589 -0.090209
v -0.419847 0.473207 0.270209
v 0.001341 0.366764 0.483793
v 0.034788 0.154053 -0.434301
v -0.465205 0.313784 -0.035610
v -0.359452 0.197934 -0.222435
v -0.264089 0.268310 -0.383134
v 0.107386 0.153254 -0.422623
v 0.147440 0.366708 0.467515
v 0.373970 0.106820 0.066057
v 0.275325 0.245044 0.353842
v -0.334271 0.354306 0.349699
v -0.442659 0.339905 -0.177969
v -0.435715 0.378445 0.212765
v 0.388229 0.258399 0.229824
v -0.092507 0.317032 0.460384
v -0.134662 0.212697 0.406565
v 0.447542 0.210762 0.000551
v 0.259684 0.045295 -0.181024
v -0.164211 0.170336 -0.397945
v 0.294743 0.038930 0.050231
v -0.119344 0.069154 -0.000477
v -0.102849 0.076340 0.034794
v -0.417671 0.215203 -0.085940
v -0.079443 0.018477 0.169081
v 0.332107 0.068069 -0.099905
v 0.336648 0.059980 -0.063183
v 0.004660 0.130458 0.022666
v -0.010987 0.043582 -0.325175
v 0.132389 0.044074 0.000849
v 0.089671 0.028148 0.264627
v 0.187027 0.022589 0.187278
v 0.153033 0.016691 0.100567
v -0.095338 0.033413 0.127667
v -0.060303 0.030928 0.123650
v 0.071856 0.006082 0.175627
v 0.076648 0.014864 0.221773
v -0.049179 0.020460 0.210869
vn -0.0325 -0.9963 -0.0791
vn -0.0439 -0.8776 0.4773
vn -0.4149 -0.8208 0.3926
vn -0.0514 -0.9867 -0.1541
vn -0.1613 -0.9722 0.1697
vn -0.2115 -0.9741 -0.0795
vn -0.2674 -0.9551 0.1276
vn -0.2567 -0.8819 0.3954
vn -0.1341 -0.9042 0.4055
vn -0.0781 -0.9921 0.0981
vn -0.0728 -0.9958 -0.0556
vn -0.0180 -0.9996 0.0224
vn 0.2397 -0.9531 0.1848
vn 0.0703 -0.9106 0.4072
vn -0.0546 -0.9796 -0.1936
vn -0.4316 0.2578 -0.8644
vn -0.2785 0.4749 -0.8348
vn -0.2274 0.2964 -0.9276
vn 0.1283 -0.9872 0.0942
vn -0.2595 -0.8129 0.5213
vn -0.2769 -0.9142 0.2959
vn -0.2796 -0.8736 0.3984
vn -0.5271 0.6372 0.5623
vn -0.6839 0.4606 0.5658
vn -0.5326 0.4320 0.7279
vn -0.1142 -0.9488 -0.2945
vn -0.0596 -0.8984 -0.4351
vn 0.1579 -0.9469 0.2802
vn -0.3358 -0.9108 0.2401
vn -0.3669 -0.8282 0.4236
vn -0.0538 -0.9208 -0.3862
vn 0.0678 -0.7948 -0.6031
vn -0.2871 -0.9511 0.1136
vn -0.0838 -0.9834 -0.1607
vn -0.5432 -0.8290 0.1329
vn -0.3614 -0.9237 0.1275
vn 0.0038 -0.9958 -0.0917
vn -0.3732 0.9277 0.0017
vn -0.2113 0.9743 0.0784
vn -0.3705 0.8845 0.2835
vn -0.1788 0.9619 -0.2070
vn -0.0387 0.9964 -0.0755
vn 0.1912 0.9808 -0.0388
vn -0.1612 -0.9849 0.0629
vn 0.2464 0.9186 -0.3090
vn 0.4146 0.8061 -0.4222
vn 0.1599 0.9145 -0.3716
vn 0.0395 0.9919 -0.1205
vn -0.1009 0.9880 0.1168
vn 0.3273 -0.8806 0.3428
vn 0.1825 -0.8330 0.5223
vn 0.0264 0.9889 -0.1462
vn 0.0236 0.9460 -0.3233
vn -0.2311 -0.9729 -0.0027
vn -0.0625 -0.9911 0.1179
vn -0.3423 -0.9396 -0.0058
vn 0.2487 -0.9454 0.2107
vn 0.2418 -0.8958 -0.3731
vn -0.6070 0.7621 0.2253
vn 0.0906 0.9929 0.0767
vn 0.6483 0.7573 -0.0783
vn 0.4934 0.8689 -0.0394
vn 0.6187 0.7781 0.1084
vn 0.2519 -0.9473 0.1978
vn -0.1429 -0.9874 0.0681
vn -0.4402 -0.8472 0.2975
vn -0.3923 -0.9152 0.0925
vn -0.1901 -0.9793 -0.0692
vn 0.0930 -0.9928 -0.0754
vn -0.0792 -0.9868 0.1413
vn 0.3232 -0.9460 -0.0250
vn 0.0578 -0.9962 -0.0658
vn -0.0676 -0.9761 -0.2064
vn 0.1488 -0.9888 -0.0118
vn 0.0391 -0.9754 0.2169
vn 0.0041 -0.9907 0.1359
vn 0.1162 -0.9122 0.3930
vn 0.9675 0.1612 -0.1946
vn 0.8880 0.1355 -0.4394
vn 0.8934 0.2956 -0.3384
vn -0.6040 -0.7834 0.1463
vn 0.2289 0.1796 0.9567
vn 0.3520 0.3428 0.8710
vn 0.0898 0.3520 0.9317
vn -0.0462 -0.7871 0.6151
vn -0.2185 -0.7535 -0.6201
vn -0.0983 0.9314 -0.3504
vn -0.3931 -0.9116 -0.1199
vn -0.3936 -0.8942 -0.2131
vn 0.6376 0.1419 -0.7572
vn 0.7654 0.0499 -0.6417
vn 0.6014 -0.0504 -0.7973
vn -0.6140 -0.7447 0.2617
vn -0.5377 -0.8430 -0.0141
vn -0.6137 -0.7863 -0.0712
vn -0.5835 -0.7119 0.3908
vn -0.0467 -0.9977 -0.0484
vn -0.2551 -0.8879 -0.3829
vn -0.1651 -0.9814 -0.0976
vn 0.9231 0.1661 0.3468
vn 0.9848 0.0931 0.1468
vn 0.9508 0.2951 0.0947
vn 0.3563 -0.7714 0.5272
vn 0.0790 -0.9529 0.2927
vn 0.0178 0.8485 -0.5289
vn 0.2271 -0.9192 0.3216
vn 0.5696 -0.7487 0.3392
vn -0.1010 0.9067 0.4094
vn 0.3884 0.9085 0.1540
vn 0.1723 0.9686 0.1795
vn 0.3757 0.8396 0.3924
vn 0.1536 -0.8049 0.5732
vn -0.0241 0.4934 0.8694
vn -0.1351 0.4021 0.9056
vn 0.2038 -0.9777 0.0514
vn 0.0030 -0.9992 0.0403
vn 0.5660 0.7465 0.3498
vn 0.4707 0.6932 0.5458
vn 0.5261 0.0704 0.8475
vn 0.6748 0.1167 0.7287
vn 0.5412 0.3014 0.7850
vn -0.3517 -0.8468 -0.3991
vn -0.1742 -0.9174 -0.3577
vn -0.0852 -0.9912 -0.1012
vn 0.9998 -0.0043 0.0215
vn 0.9796 0.1949 -0.0496
vn 0.3200 -0.6783 -0.6615
vn 0.4475 0.0379 -0.8935
vn 0.7909 0.6114 0.0271
vn -0.0846 0.9349 -0.3446
vn 0.0117 0.9967 -0.0807
vn 0.0723 0.9951 0.0681
vn -0.0189 0.8988 -0.4380
vn -0.4771 -0.6992 0.5325
vn 0.2611 0.8669 0.4247
vn -0.0144 -0.9412 -0.3374
vn 0.0843 -0.9919 -0.0947
vn -0.6915 -0.5929 0.4127
vn -0.0117 0.9810 -0.1937
vn 0.0178 0.9646 0.2631
vn -0.4301 -0.8989 0.0840
vn -0.0624 -0.9980 0.0049
vn -0.3280 -0.9391 -0.1028
vn 0.1848 -0.8674 -0.4621
vn 0.2471 -0.8240 0.5099
vn 0.5651 0.7864 -0.2495
vn 0.6405 0.6488 -0.4108
vn -0.6885 -0.7250 0.0154
vn -0.5209 -0.7855 -0.3341
vn 0.1995 0.9231 0.3287
vn 0.0552 0.8029 0.5936
vn 0.4979 -0.7814 0.3763
vn -0.5390 -0.8308 -0.1387
vn -0.5469 -0.7440 -0.3839
vn 0.2855 -0.9583 0.0083
vn -0.0182 0.9998 -0.0048
vn -0.0376 0.9934 -0.1086
vn -0.3066 0.9191 -0.2474
vn 0.3442 0.7657 0.5433
vn -0.0706 -0.7804 0.6213
vn -0.2677 0.7500 0.6049
vn -0.4950 0.7360 0.4618
vn 0.3272 -0.9258 0.1893
vn 0.5700 -0.7732 0.2781
vn 0.1082 0.8459 0.5222
vn 0.4619 -0.7029 0.5410
vn -0.3974 -0.6894 -0.6057
vn -0.2482 -0.6275 0.7380
vn -0.3397 -0.5421 0.7686
vn -0.4413 -0.5828 0.6823
vn -0.0557 -0.8465 -0.5295
vn 0.0338 -0.5851 -0.8102
vn -0.2819 -0.7372 0.6141
vn -0.6823 0.7145 -0.1551
vn -0.4153 0.8443 -0.3385
vn 0.7193 0.6701 -0.1832
vn 0.0446 -0.8074 -0.5884
vn 0.3902 0.9028 0.1807
vn 0.1868 0.9694 0.1592
vn -0.2795 -0.8719 0.4021
vn -0.1433 -0.9877 0.0620
vn 0.2295 -0.9544 -0.1909
vn 0.3415 -0.9321 -0.1206
vn 0.0610 -0.9940 -0.0910
vn 0.0972 -0.9924 -0.0757
vn 0.0766 -0.9967 0.0260
vn -0.7316 -0.6151 0.2939
vn -0.7560 -0.6315 0.1722
vn -0.6098 -0.5583 0.5625
vn -0.1208 -0.9518 0.2821
vn 0.2537 -0.9202 -0.2979
vn -0.6490 0.3775 -0.6605
vn -0.7267 0.2384 -0.6443
vn -0.7599 0.4125 -0.5024
vn 0.1310 -0.9031 -0.4089
vn -0.5559 -0.7424 -0.3739
vn 0.4152 0.8220 0.3898
vn -0.3631 0.9136 -0.1829
vn -0.2984 0.8758 -0.3793
vn 0.5840 -0.8095 0.0597
vn 0.5464 -0.8249 0.1450
vn 0.2472 -0.9347 -0.2554
vn -0.9086 0.1924 0.3708
vn -0.8127 0.3352 0.4766
vn -0.8278 0.4949 0.2642
vn -0.8636 0.2098 -0.4584
vn -0.8380 0.4304 -0.3354
vn 0.5375 -0.7749 -0.3325
vn 0.4899 -0.7958 -0.3560
vn 0.8207 0.5575 -0.1249
vn 0.1890 -0.6621 0.7252
vn 0.3641 -0.7314 0.5766
vn 0.4842 -0.6531 0.5822
vn -0.2923 0.4125 0.8628
vn -0.4656 0.2586 0.8464
vn -0.3278 0.1470 0.9332
vn 0.3820 -0.8608 -0.3364
vn -0.5202 -0.6110 -0.5967
vn -0.5813 0.1698 -0.7958
vn -0.5331 0.4541 -0.7138
vn 0.4454 0.1979 -0.8732
vn 0.2515 0.0969 -0.9630
vn 0.3097 0.3252 -0.8935
vn 0.8091 0.4807 -0.3382
vn -0.0721 0.9969 0.0299
vn -0.0762 0.9947 0.0685
vn 0.5873 -0.8087 0.0330
vn 0.4636 -0.8765 0.1298
vn 0.6390 -0.7529 0.1577
vn -0.7738 -0.6316 0.0479
vn -0.7950 -0.6046 -0.0497
vn -0.6600 0.2661 0.7026
vn 0.5224 -0.7928 -0.3140
vn 0.5930 -0.7985 -0.1041
vn 0.6633 -0.6227 0.4151
vn 0.5796 -0.5907 0.5614
vn -0.1723 -0.5080 0.8439
vn 0.0948 0.0604 0.9937
vn -0.0454 0.2220 0.9740
vn -0.6858 -0.6277 -0.3684
vn -0.6157 -0.6023 -0.5081
vn 0.0902 0.9825 -0.1630
vn 0.1520 0.9836 -0.0974
vn -0.1443 0.9895 -0.0022
vn 0.1669 0.4981 -0.8509
vn 0.0173 0.7079 -0.7061
vn 0.2583 0.7359 -0.6259
vn -0.5003 -0.7378 0.4531
vn 0.9168 -0.0345 -0.3978
vn 0.9623 0.0344 -0.2700
vn 0.2581 -0.7286 -0.6344
vn -0.1172 -0.7187 -0.6853
vn 0.0682 -0.6869 -0.7235
vn 0.1876 0.7305 -0.6566
vn 0.1042 0.8721 -0.4782
vn -0.0584 0.7645 -0.6419
vn -0.2663 -0.7756 -0.5722
vn -0.7206 0.5365 0.4392
vn -0.8047 -0.5486 -0.2267
vn -0.7578 -0.5665 -0.3236
vn -0.6818 -0.6941 -0.2311
vn -0.0105 -0.9993 -0.0362
vn -0.0679 -0.9975 0.0175
vn 0.1950 -0.9493 0.2467
vn -0.5752 0.0629 0.8156
vn -0.2821 -0.7842 -0.5527
vn -0.0524 -0.9871 -0.1513
vn 0.3949 -0.5714 0.7194
vn -0.0312 0.6787 0.7338
vn -0.3344 0.9273 0.1685
vn -0.5256 0.7667 -0.3687
vn -0.4477 0.6937 -0.5642
vn -0.6772 -0.5848 -0.4466
vn -0.3473 -0.9358 -0.0610
vn -0.8259 0.1608 0.5404
vn -0.4123 -0.6467 -0.6417
vn -0.2806 -0.5538 -0.7839
vn -0.2118 -0.9773 0.0070
vn 0.2259 -0.6856 0.6921
vn 0.1689 -0.4909 0.8547
vn -0.1310 -0.5871 -0.7988
vn 0.5122 0.3686 -0.7758
vn -0.7070 -0.4649 0.5329
vn 0.7028 -0.7037 0.1042
vn 0.7387 -0.6424 0.2040
vn -0.2978 -0.4456 0.8443
vn 0.4082 -0.7894 -0.4585
vn -0.2245 0.9290 0.2940
vn -0.2214 0.9752 0.0034
vn 0.4778 -0.6490 -0.5920
vn 0.6950 -0.7021 -0.1551
vn 0.7921 -0.6101 -0.0202
vn -0.8390 -0.4854 0.2458
vn -0.8487 -0.5169 0.1115
vn 0.5707 -0.6408 -0.5136
vn -0.4288 0.8280 0.3614
vn -0.7347 0.0449 -0.6769
vn 0.6382 -0.6961 -0.3289
vn 0.6394 -0.7353 -0.2250
vn -0.8907 -0.4528 -0.0393
vn -0.8734 -0.4632 -0.1502
vn -0.1658 0.1547 -0.9740
vn -0.2845 0.0468 -0.9575
vn 0.4098 0.8082 -0.4229
vn 0.3823 0.9238 -0.0223
vn 0.5842 0.8045 -0.1071
vn -0.7526 -0.4991 -0.4296
vn -0.4567 0.6377 0.6204
vn 0.7774 -0.5792 -0.2453
vn 0.3631 -0.4013 0.8409
vn 0.8452 -0.5101 0.1596
vn -0.1003 0.8990 0.4263
vn -0.1242 0.7463 0.6539
vn -0.2041 0.7140 -0.6698
vn -0.3851 0.5755 -0.7215
vn 0.2547 -0.5217 -0.8142
vn -0.6388 -0.4165 0.6468
vn 0.3893 0.4886 0.7809
vn -0.6769 0.7059 0.2084
vn 0.6195 0.7001 0.3550
vn 0.7812 -0.5135 0.3551
vn -0.1010 0.6438 -0.7585
vn -0.6800 -0.4548 -0.5751
vn 0.5837 -0.4668 0.6643
vn -0.4942 0.8576 0.1427
vn 0.4033 -0.6123 -0.6800
vn -0.0035 0.0469 -0.9989
vn 0.4102 0.6380 0.6517
vn -0.2772 0.7999 0.5323
vn -0.8928 -0.3893 0.2267
vn -0.9224 -0.3747 0.0942
vn 0.5200 -0.3583 0.7754
vn 0.7220 -0.5092 -0.4684
vn -0.0572 -0.3672 0.9284
vn -0.8236 -0.4125 -0.3892
vn 0.7233 -0.4564 0.5182
vn 0.7161 -0.2681 0.6445
vn 0.6384 -0.3444 0.6883
vn 0.5268 -0.4842 -0.6986
vn -0.5834 -0.4382 -0.6839
vn 0.0356 -0.5037 -0.8632
vn 0.2856 0.6980 0.6567
vn 0.0176 0.6776 0.7353
vn -0.7702 -0.3170 -0.5535
vn -0.9427 -0.3237 -0.0812
vn -0.6783 -0.0516 -0.7330
vn -0.7939 -0.3681 0.4840
vn -0.3475 0.7144 -0.6074
vn -0.6223 0.6006 -0.5020
vn 0.8037 -0.3173 0.5033
vn 0.7624 0.4382 -0.4762
vn -0.8992 -0.3829 -0.2116
vn 0.5066 0.5069 0.6974
vn -0.7018 0.6525 0.2860
vn -0.5780 0.7375 0.3494
vn -0.8968 -0.2025 0.3934
vn -0.8636 -0.3839 0.3267
vn 0.8706 -0.3634 0.3316
vn 0.9089 -0.4082 -0.0855
vn 0.9031 -0.4188 0.0949
vn -0.6665 -0.2679 0.6957
vn -0.8119 -0.2191 0.5411
vn -0.9113 0.0397 -0.4099
vn -0.8121 0.0686 -0.5795
vn 0.6355 -0.2353 -0.7354
vn 0.5265 -0.1474 -0.8373
vn 0.2119 -0.3697 -0.9047
vn 0.1758 -0.3095 0.9345
vn 0.0960 -0.1763 0.9796
vn -0.6259 0.7363 -0.2572
vn 0.6462 0.4805 -0.5930
vn 0.5345 0.5499 -0.6419
vn 0.0212 -0.2919 -0.9562
vn 0.4508 -0.1742 0.8754
vn 0.5913 -0.0498 0.8049
vn -0.5966 -0.3114 -0.7397
vn -0.9713 0.2368 -0.0201
vn -0.9630 0.1275 -0.2373
vn -0.9939 0.0207 -0.1085
vn -0.9278 0.3094 0.2084
vn -0.8871 0.4542 0.0816
vn 0.4676 0.6770 -0.5683
vn 0.0837 0.2320 -0.9691
vn -0.0510 0.9974 -0.0505
vn -0.7007 -0.3689 -0.6106
vn 0.6258 -0.1833 0.7581
vn -0.3553 0.9345 0.0231
vn -0.2563 -0.0832 0.9630
vn -0.1761 0.1706 0.9695
vn -0.5211 -0.4000 0.7540
vn -0.7738 -0.1644 -0.6117
vn -0.0540 0.5312 -0.8455
vn -0.0010 0.3427 -0.9395
vn 0.8931 0.4182 0.1656
vn 0.7616 0.5997 0.2455
vn 0.8456 0.3728 0.3820
vn -0.9608 -0.1005 -0.2582
vn 0.0288 -0.9584 0.2841
vn 0.4650 0.8661 -0.1834
vn 0.2205 0.7787 -0.5874
vn 0.9352 -0.3144 0.1633
vn -0.1284 -0.4109 -0.9026
vn -0.1754 0.5876 0.7899
vn 0.3511 0.5486 -0.7588
vn 0.1257 0.9886 -0.0827
vn 0.3686 0.9145 -0.1670
vn 0.7439 -0.1421 -0.6530
vn 0.8448 -0.0496 -0.5327
vn 0.8642 -0.2218 -0.4516
vn 0.5788 0.6942 0.4278
vn 0.9173 -0.0758 0.3909
vn 0.8396 0.0069 0.5431
vn -0.3444 0.6163 0.7082
vn -0.6426 0.7285 -0.2374
vn -0.5060 0.8614 -0.0436
vn 0.9779 -0.1207 0.1706
vn 0.9661 -0.0162 0.2578
vn 0.9188 -0.2123 0.3328
vn 0.5507 0.8089 -0.2062
vn -0.3158 0.9295 -0.1904
vn 0.6490 0.7467 -0.1456
vn -0.7198 -0.1072 0.6858
vn -0.7337 0.0681 0.6761
vn -0.6898 -0.7240 0.0045
vn 0.9093 0.3975 -0.1233
vn 0.9765 -0.2136 0.0277
vn -0.5647 0.6621 -0.4928
vn -0.1374 0.8661 -0.4806
vn 0.8309 -0.1717 0.5292
vn 0.8051 0.2449 -0.5402
vn -0.9759 -0.1727 -0.1333
vn 0.7091 0.4024 0.5790
vn 0.8080 0.2047 0.5526
vn -0.8546 0.5106 -0.0943
vn -0.7678 0.5678 -0.2967
vn -0.9201 0.3517 -0.1723
vn -0.0607 -0.1772 0.9823
vn -0.3910 -0.2979 0.8708
vn -0.5152 -0.1657 0.8409
vn -0.9133 -0.2619 -0.3119
vn -0.8875 -0.1792 -0.4245
vn 0.9919 -0.0522 -0.1155
vn -0.6408 -0.2062 -0.7395
vn -0.0457 -0.0903 -0.9949
vn -0.5134 -0.0180 -0.8580
vn -0.9513 -0.1971 -0.2369
vn 0.3444 0.8490 -0.4008
vn -0.0424 -0.0140 0.9990
vn 0.4341 -0.3782 -0.8176
vn -0.1977 -0.2776 0.9401
vn -0.8618 -0.0329 0.5061
vn 0.5855 -0.3441 -0.7340
vn 0.4103 -0.2066 -0.8883
vn -0.7234 0.6876 0.0626
vn -0.9772 -0.2086 0.0387
vn -0.9818 -0.0983 0.1624
vn -0.9671 0.1421 0.2110
vn -0.9398 -0.0213 0.3411
vn 0.1631 -0.2013 -0.9659
vn 0.2560 -0.0670 -0.9644
vn 0.5741 0.8134 -0.0938
vn -0.8311 -0.0814 -0.5502
vn 0.1947 0.5515 0.8111
vn 0.5556 0.7903 -0.2582
vn 0.5287 0.6433 -0.5538
vn -0.7179 0.6864 -0.1157
vn 0.8105 -0.3738 -0.4510
vn 0.9452 -0.2359 -0.2259
vn 0.8413 -0.4664 -0.2733
vn -0.4738 -0.0197 0.8804
vn 0.6636 0.7429 -0.0876
vn -0.3262 -0.3334 -0.8845
vn -0.1444 -0.2473 -0.9581
vn -0.3080 -0.1104 -0.9449
vn 0.7395 -0.2934 -0.6058
vn -0.9401 -0.2472 -0.2349
vn 0.6455 -0.4696 -0.6023
vn 0.6004 0.5480 0.5824
vn 0.6881 0.3142 -0.6541
vn -0.4837 -0.3633 -0.7963
vn -0.4172 -0.4937 -0.7630
vn -0.2308 0.8286 0.5100
vn 0.3023 -0.1476 0.9417
vn 0.7302 -0.0589 0.6807
vn -0.0985 -0.6209 0.7777
vn -0.1666 -0.6895 0.7049
vn 0.3128 -0.0047 0.9498
vn -0.4668 -0.1812 -0.8656
vn -0.9363 -0.2463 0.2505
vn 0.7094 0.5592 0.4290
vn 0.2857 0.6947 0.6602
vn 0.6556 0.2896 0.6974
vn 0.4440 0.1718 0.8794
vn -0.5410 -0.8368 -0.0836
vn -0.9983 0.0354 0.0461
vn -0.7865 -0.4904 0.3753
vn -0.0063 -0.5189 0.8548
vn 0.0550 -0.6780 0.7330
vn -0.1990 0.8156 -0.5433
vn -0.9045 0.3162 -0.2861
vn 0.3104 0.9506 -0.0086
vn 0.5327 0.6874 -0.4937
vt 0.084418 0.137772
vt 0.104616 0.149267
vt 0.110970 0.104973
vt 0.090195 0.202235
vt 0.067513 0.264955
vt 0.420283 0.721178
vt 0.129247 0.165822
vt 0.165738 0.076390
vt 0.043974 0.223209
vt 0.157269 0.109924
vt 0.888079 0.871266
vt 0.163086 0.135664
vt 0.230956 0.115368
vt 0.221846 0.065527
vt 0.224687 0.136348
vt 0.098595 0.294708
vt 0.100153 0.335970
vt 0.049795 0.304042
vt 0.970747 0.749945
vt 0.111110 0.217856
vt 0.220205 0.087658
vt 0.061898 0.115919
vt 0.272129 0.131333
vt 0.082565 0.353280
vt 0.113522 0.378416
vt 0.030378 0.182223
vt 0.179772 0.154664
vt 0.153605 0.166375
vt 0.056967 0.369563
vt 0.274592 0.181261
vt 0.259219 0.203804
vt 0.097059 0.077474
vt 0.946523 0.364085
vt 0.101478 0.038254
vt 0.970747 0.680260
vt 0.117326 0.283928
vt 0.153725 0.398142
vt 0.174217 0.359128
vt 0.218841 0.164621
vt 0.372280 0.878498
vt 0.062226 0.071155
vt 0.150567 0.429894
vt 0.020641 0.269740
vt 0.136082 0.347063
vt 0.288637 0.248719
vt 0.365947 0.806136
vt 0.030248 0.138715
vt 0.082572 0.406005
vt 0.952927 0.112110
vt 0.280582 0.071427
vt 0.254110 0.244736
vt 0.244201 0.227626
vt 0.981898 0.666616
vt 0.177065 0.182723
vt 0.003609 0.223320
vt 0.368749 0.716459
vt 0.210259 0.188661
vt 0.128442 0.448708
vt 0.314918 0.227008
vt 0.954416 0.292326
vt 0.154636 0.028727
vt 0.206154 0.424507
vt 0.998573 0.559515
vt 0.134160 0.221377
vt 0.954416 0.191751
vt 0.226628 0.036092
vt 0.200126 0.393156
vt 0.954731 0.677407
vt 0.202570 0.171009
vt 0.995650 0.668771
vt 0.988782 0.597655
vt 0.164139 0.189908
vt 0.298042 0.147881
vt 0.949675 0.723273
vt 0.995153 0.534521
vt 0.131449 0.243657
vt 0.235762 0.408398
vt 0.258062 0.344207
vt 0.257875 0.314845
vt 0.142751 0.001427
vt 0.931456 0.311424
vt 0.024817 0.322694
vt 0.347013 0.621316
vt 0.269784 0.376318
vt 0.001427 0.282492
vt 0.364885 0.656737
vt 0.946821 0.660635
vt 0.325736 0.314253
vt 0.998573 0.474482
vt 0.959206 0.752799
vt 0.148268 0.302801
vt 0.288353 0.108941
vt 0.341123 0.934965
vt 0.156393 0.321489
vt 0.011203 0.146535
vt 0.382232 0.793844
vt 0.265094 0.420999
vt 0.216454 0.326585
vt 0.236197 0.447398
vt 0.033821 0.741279
vt 0.946821 0.850142
vt 0.314955 0.125190
vt 0.945699 0.790932
vt 0.331821 0.186687
vt 0.341123 0.682252
vt 0.227406 0.297575
vt 0.341123 0.877624
vt 0.193151 0.315376
vt 0.009121 0.576933
vt 0.399536 0.059209
vt 0.312811 0.908994
vt 0.949675 0.798024
vt 0.166219 0.284607
vt 0.301002 0.614035
vt 0.085756 0.449469
vt 0.990144 0.505440
vt 0.139910 0.271476
vt 0.918009 0.239944
vt 0.367986 0.618778
vt 0.187352 0.200667
vt 0.968880 0.641042
vt 0.682067 0.915164
vt 0.644381 0.381147
vt 0.687617 0.075708
vt 0.984923 0.630962
vt 0.301002 0.744053
vt 0.177124 0.481403
vt 0.030192 0.075786
vt 0.398407 0.866553
vt 0.849474 0.806518
vt 0.259416 0.448899
vt 0.548716 0.885563
vt 0.341123 0.586568
vt 0.949675 0.645285
vt 0.204251 0.208135
vt 0.134814 0.481850
vt 0.297026 0.685110
vt 0.305006 0.586568
vt 0.034790 0.932185
vt 0.208100 0.256035
vt 0.321217 0.635131
vt 0.299801 0.810544
vt 0.225512 0.474583
vt 0.899273 0.369899
vt 0.927261 0.177354
vt 0.585084 0.161635
vt 0.090928 0.017292
vt 0.925694 0.380555
vt 0.398121 0.212226
vt 0.688353 0.396908
vt 0.630892 0.896375
vt 0.416945 0.429703
vt 0.822047 0.847809
vt 0.443335 0.922159
vt 0.875207 0.444030
vt 0.941787 0.579524
vt 0.302527 0.390598
vt 0.011464 0.620559
vt 0.427314 0.029674
vt 0.830373 0.117279
vt 0.304554 0.074378
vt 0.931763 0.900624
vt 0.936323 0.077703
vt 0.046643 0.045683
vt 0.404756 0.898781
vt 0.913373 0.437168
vt 0.565821 0.741221
vt 0.863551 0.866895
vt 0.155466 0.510344
vt 0.501065 0.489298
vt 0.827493 0.195224
vt 0.172925 0.452344
vt 0.344159 0.306401
vt 0.929789 0.672841
vt 0.424642 0.220074
vt 0.245671 0.578898
vt 0.645207 0.175641
vt 0.872027 0.700984
vt 0.746494 0.206839
vt 0.816689 0.801229
vt 0.829901 0.734321
vt 0.249038 0.851672
vt 0.718767 0.761630
vt 0.391632 0.577436
vt 0.400211 0.331396
vt 0.658917 0.796434
vt 0.658524 0.256828
vt 0.765626 0.926567
vt 0.773007 0.025036
vt 0.995650 0.615635
vt 0.952620 0.542804
vt 0.160461 0.235405
vt 0.199338 0.924431
vt 0.839427 0.503096
vt 0.471421 0.893341
vt 0.914531 0.753657
vt 0.044716 0.947265
vt 0.309957 0.891844
vt 0.308687 0.609420
vt 0.194636 0.233247
vt 0.350776 0.114791
vt 0.628564 0.572877
vt 0.901231 0.668739
vt 0.127059 0.538607
vt 0.018260 0.373947
vt 0.372353 0.566118
vt 0.543090 0.777366
vt 0.522498 0.607290
vt 0.305006 0.616066
vt 0.205097 0.284981
vt 0.517898 0.733974
vt 0.952564 0.527799
vt 0.158934 0.249063
vt 0.819493 0.888345
vt 0.313678 0.888175
vt 0.179732 0.283848
vt 0.949675 0.836006
vt 0.034790 0.955388
vt 0.192068 0.267959
vt 0.733815 0.075305
vt 0.888434 0.288747
vt 0.339036 0.349424
vt 0.924202 0.628702
vt 0.883690 0.118015
vt 0.397436 0.690435
vt 0.656064 0.755717
vt 0.366543 0.297434
vt 0.610836 0.659823
vt 0.221680 0.237965
vt 0.341115 0.616899
vt 0.429220 0.943426
vt 0.890435 0.412235
vt 0.763242 0.245027
vt 0.749922 0.668913
vt 0.915914 0.102678
vt 0.763824 0.768187
vt 0.149735 0.746374
vt 0.341123 0.813437
vt 0.521186 0.279901
vt 0.575038 0.500566
vt 0.081597 0.518354
vt 0.043509 0.385587
vt 0.744659 0.616669
vt 0.073704 0.019179
vt 0.916035 0.403612
vt 0.400645 0.639219
vt 0.791100 0.360110
vt 0.303855 0.606421
vt 0.205480 0.275026
vt 0.762664 0.438994
vt 0.556212 0.925431
vt 0.282304 0.811660
vt 0.928453 0.530341
vt 0.289961 0.437748
vt 0.802674 0.567773
vt 0.595354 0.400938
vt 0.608153 0.358231
vt 0.899103 0.569160
vt 0.740234 0.865455
vt 0.525291 0.943721
vt 0.794071 0.432631
vt 0.602425 0.839163
vt 0.077094 0.645313
vt 0.708447 0.438206
vt 0.609591 0.882377
vt 0.892739 0.773429
vt 0.553795 0.553698
vt 0.075343 0.812285
vt 0.960773 0.823779
vt 0.193160 0.284581
vt 0.581918 0.795907
vt 0.843179 0.549853
vt 0.279733 0.756816
vt 0.343581 0.165677
vt 0.928731 0.815276
vt 0.408304 0.795466
vt 0.601979 0.604858
vt 0.755373 0.519257
vt 0.115095 0.910777
vt 0.648281 0.131722
vt 0.666458 0.668697
vt 0.775728 0.400292
vt 0.965258 0.604213
vt 0.188412 0.227469
vt 0.270735 0.578617
vt 0.667670 0.323944
vt 0.682906 0.862435
vt 0.302213 0.192700
vt 0.726231 0.257617
vt 0.673313 0.191109
vt 0.570290 0.447266
vt 0.953779 0.858520
vt 0.024161 0.946773
vt 0.196344 0.253289
vt 0.605654 0.543271
vt 0.604445 0.052072
vt 0.669309 0.580423
vt 0.639781 0.324111
vt 0.780599 0.626774
vt 0.301799 0.321111
vt 0.096657 0.589553
vt 0.428430 0.597495
vt 0.031955 0.540847
vt 0.624517 0.523408
vt 0.372322 0.061209
vt 0.411712 0.498858
vt 0.244184 0.532548
vt 0.673124 0.833238
vt 0.665593 0.293970
vt 0.573186 0.378531
vt 0.166922 0.651175
vt 0.875599 0.947548
vt 0.878507 0.065725
vt 0.166365 0.572758
vt 0.197725 0.242375
vt 0.037644 0.944616
vt 0.308930 0.619117
vt 0.955972 0.861373
vt 0.854514 0.927321
vt 0.860905 0.030470
vt 0.753588 0.169129
vt 0.333159 0.874771
vt 0.480571 0.286585
vt 0.682806 0.778949
vt 0.714510 0.597791
vt 0.916650 0.552216
vt 0.314186 0.421059
vt 0.889569 0.195618
vt 0.452954 0.423388
vt 0.124258 0.608279
vt 0.175309 0.253089
vt 0.955972 0.892109
vt 0.721252 0.634548
vt 0.282935 0.628662
vt 0.033489 0.833207
vt 0.579508 0.018119
vt 0.613991 0.309434
vt 0.625986 0.826907
vt 0.437921 0.652504
vt 0.532244 0.059708
vt 0.037792 0.682236
vt 0.510836 0.427910
vt 0.471264 0.074382
vt 0.452520 0.786985
vt 0.131994 0.816592
vt 0.960773 0.844889
vt 0.184070 0.266554
vt 0.533162 0.001427
vt 0.025221 0.771975
vt 0.959206 0.820925
vt 0.949675 0.517023
vt 0.164342 0.259632
vt 0.716290 0.822871
vt 0.099282 0.776525
vt 0.178897 0.227368
vt 0.975741 0.600509
vt 0.908253 0.894054
vt 0.915595 0.041013
vt 0.231032 0.382873
vt 0.869165 0.743249
vt 0.892204 0.808553
vt 0.637574 0.248890
vt 0.653491 0.661257
vt 0.356342 0.203884
vt 0.521001 0.332622
vt 0.626593 0.150248
vt 0.590199 0.234304
vt 0.207839 0.484704
vt 0.449801 0.528502
vt 0.483595 0.007581
vt 0.016017 0.702143
vt 0.613644 0.726921
vt 0.853493 0.403303
vt 0.385095 0.192036
vt 0.268415 0.686956
vt 0.565178 0.080953
vt 0.904205 0.521286
vt 0.466240 0.821385
vt 0.480710 0.336044
vt 0.372769 0.108995
vt 0.036918 0.419534
vt 0.277915 0.542057
vt 0.377990 0.522281
vt 0.186321 0.242949
vt 0.044716 0.932185
vt 0.304120 0.879508
vt 0.949675 0.878298
vt 0.170297 0.235650
vt 0.001427 0.714591
vt 0.496101 0.028007
vt 0.207874 0.599938
vt 0.347013 0.275703
vt 0.639370 0.731575
vt 0.697590 0.587827
vt 0.702075 0.707921
vt 0.309957 0.877624
vt 0.185114 0.236543
vt 0.592261 0.139808
vt 0.815670 0.653081
vt 0.279189 0.858789
vt 0.260672 0.479761
vt 0.919850 0.483121
vt 0.707707 0.887969
vt 0.073865 0.547014
vt 0.775328 0.072623
vt 0.448572 0.010462
vt 0.019554 0.653788
vt 0.199470 0.353943
vt 0.689268 0.181508
vt 0.408321 0.090710
vt 0.784777 0.755192
vt 0.496741 0.234632
vt 0.631066 0.091433
vt 0.668383 0.624943
vt 0.835255 0.265988
vt 0.430257 0.865855
vt 0.423494 0.179162
vt 0.477145 0.229045
vt 0.001427 0.937790
vt 0.665523 0.706192
vt 0.658073 0.167286
vt 0.538700 0.139160
vt 0.535899 0.669796
vt 0.486039 0.471628
vt 0.688802 0.311969
vt 0.600113 0.276152
vt 0.505700 0.227886
vt 0.751652 0.752602
vt 0.630035 0.775676
vt 0.688276 0.671090
vt 0.463112 0.129280
vt 0.453028 0.326919
vt 0.577482 0.670537
vt 0.341123 0.777601
vt 0.547243 0.275434
vt 0.629248 0.401028
vt 0.683830 0.100673
vt 0.868868 0.213425
vt 0.517388 0.079432
vt 0.303921 0.516181
vt 0.490045 0.208253
vt 0.893024 0.488943
vt 0.252756 0.891458
vt 0.721089 0.663227
vt 0.862136 0.335651
vt 0.514048 0.238083
vt 0.412940 0.541197
vt 0.254054 0.723382
vt 0.502286 0.250234
vt 0.427938 0.229634
vt 0.490434 0.260520
vt 0.525330 0.296789
vt 0.466502 0.113837
vt 0.561624 0.350939
vt 0.446550 0.048393
vt 0.515622 0.103928
vt 0.892499 0.622199
vt 0.419245 0.157515
vt 0.487025 0.249298
vt 0.021308 0.932185
vt 0.319357 0.797057
vt 0.309403 0.731063
vt 0.525565 0.244677
vt 0.245465 0.647885
vt 0.251825 0.783365
vt 0.629509 0.202813
vt 0.868387 0.513381
vt 0.227268 0.927703
vt 0.516410 0.063255
vt 0.867637 0.594435
vt 0.486855 0.067514
vt 0.332131 0.495239
vt 0.475487 0.188339
vt 0.486833 0.689674
vt 0.223324 0.873492
vt 0.617875 0.284696
vt 0.835285 0.434681
vt 0.484013 0.945448
vt 0.465844 0.719106
vt 0.223390 0.824541
vt 0.849726 0.140650
vt 0.631189 0.629227
vt 0.851688 0.666509
vt 0.498463 0.778766
vt 0.222626 0.676234
vt 0.210719 0.553372
vt 0.829721 0.332876
vt 0.730033 0.888759
vt 0.201987 0.779185
vt 0.419614 0.283738
vt 0.418612 0.351869
vt 0.467861 0.474482
vt 0.187889 0.529651
vt 0.303855 0.549076
vt 0.512859 0.205693
vt 0.449467 0.387538
vt 0.208620 0.732283
vt 0.468727 0.017166
vt 0.009885 0.679561
vt 0.038809 0.628706
vt 0.813264 0.464544
vt 0.504745 0.913696
vt 0.310544 0.709311
vt 0.528874 0.224213
vt 0.766145 0.724375
vt 0.050325 0.593359
vt 0.644723 0.714408
vt 0.350247 0.258087
vt 0.711899 0.350224
vt 0.795715 0.269574
vt 0.477003 0.600704
vt 0.737153 0.117340
vt 0.523589 0.232997
vt 0.812506 0.387785
vt 0.503834 0.874533
vt 0.834759 0.596896
vt 0.789385 0.110611
vt 0.609485 0.448076
vt 0.697421 0.138526
vt 0.458579 0.453595
vt 0.685337 0.345322
vt 0.182858 0.623329
vt 0.494864 0.846635
vt 0.731251 0.315222
vt 0.338198 0.780455
vt 0.538603 0.247356
vt 0.326269 0.740939
vt 0.491446 0.130861
vt 0.680280 0.806512
vt 0.468644 0.258426
vt 0.021308 0.962309
vt 0.659501 0.343938
vt 0.680760 0.881073
vt 0.448125 0.198926
vt 0.812374 0.953227
vt 0.816405 0.048946
vt 0.078138 0.902644
vt 0.719804 0.544901
vt 0.613781 0.180834
vt 0.409214 0.259061
vt 0.641256 0.842368
vt 0.385810 0.380909
vt 0.676464 0.232035
vt 0.542962 0.463163
vt 0.742271 0.465469
vt 0.575182 0.884314
vt 0.603433 0.010362
vt 0.059088 0.869296
vt 0.700280 0.535020
vt 0.557635 0.319884
vt 0.716358 0.930667
vt 0.721946 0.056139
vt 0.335934 0.723160
vt 0.549580 0.227148
vt 0.410374 0.118120
vt 0.308724 0.843170
vt 0.400054 0.376297
vt 0.182356 0.893007
vt 0.820683 0.474482
vt 0.606092 0.102181
vt 0.484188 0.362309
vt 0.515232 0.380467
vt 0.387241 0.101942
vt 0.559117 0.159018
vt 0.723787 0.176044
vt 0.534075 0.506161
vt 0.123089 0.497751
vt 0.460062 0.359997
vt 0.566800 0.249885
vt 0.543869 0.395859
vt 0.390693 0.287935
vt 0.570519 0.280244
vt 0.483234 0.150022
vt 0.494040 0.549407
vt 0.790855 0.845513
vt 0.813051 0.704910
vt 0.506943 0.169952
vt 0.341123 0.542437
vt 0.816737 0.001427
vt 0.806955 0.905361
vt 0.326764 0.484704
vt 0.469922 0.203910
vt 0.183608 0.843942
vt 0.936605 0.734333
vt 0.344159 0.245272
vt 0.389366 0.235822
vt 0.597542 0.214677
vt 0.341123 0.583350
vt 0.537071 0.177453
vt 0.572926 0.124669
vt 0.390178 0.133737
vt 0.590271 0.309556
vt 0.543646 0.299780
vt 0.569466 0.224281
vt 0.164462 0.812832
vt 0.582838 0.062190
vt 0.588158 0.183591
vt 0.493795 0.052528
vt 0.571599 0.182683
vt 0.614331 0.227223
vt 0.007573 0.788391
vt 0.550046 0.031985
vt 0.556695 0.194027
vt 0.433865 0.249356
vt 0.509012 0.809362
vt 0.069272 0.849554
vt 0.502614 0.342489
vt 0.656064 0.614562
vt 0.366866 0.155200
vt 0.595485 0.116024
vt 0.789701 0.186829
vt 0.333828 0.566177
vt 0.524850 0.182439
vt 0.546190 0.833081
vt 0.712107 0.407938
vt 0.639848 0.224736
vt 0.485817 0.307162
vt 0.481040 0.406906
vt 0.500247 0.650452
vt 0.425068 0.336732
vt 0.541263 0.085107
vt 0.341123 0.851171
vt 0.498377 0.297376
vt 0.323166 0.531713
vt 0.500126 0.188211
vt 0.314500 0.688643
vt 0.308357 0.561602
vt 0.522266 0.205705
vt 0.670895 0.728101
vt 0.667670 0.188003
vt 0.537053 0.439633
vt 0.454928 0.233790
vt 0.451731 0.286812
vt 0.696141 0.629348
vt 0.767841 0.308615
vt 0.140612 0.884845
vt 0.777362 0.870282
vt 0.770810 0.814854
vt 0.670524 0.275430
vt 0.510061 0.457212
vt 0.742302 0.373059
vt 0.503588 0.263047
vt 0.311578 0.832697
vt 0.442648 0.161499
vt 0.638305 0.802617
vt 0.362657 0.344610
vt 0.156426 0.929331
vt 0.796842 0.517024
vt 0.126875 0.650867
vt 0.702877 0.222387
vt 0.737213 0.708191
vt 0.700083 0.837052
vt 0.742799 0.936831
vt 0.748500 0.045306
vt 0.703388 0.266960
vt 0.132868 0.565720
vt 0.632172 0.709279
vt 0.572547 0.527100
vt 0.107838 0.863605
vt 0.755778 0.793987
vt 0.756868 0.556689
vt 0.564480 0.612584
vt 0.101309 0.706325
vt 0.054030 0.731194
vt 0.584978 0.755851
vt 0.421507 0.379583
vt 0.706965 0.105349
vt 0.371891 0.251739
vt 0.341123 0.707200
vt 0.551081 0.211240
vt 0.333782 0.583714
vt 0.340535 0.685106
vt 0.539030 0.193445
vt 0.698777 0.748977
vt 0.508152 0.120780
vt 0.379639 0.344302
vt 0.305083 0.804363
vt 0.372078 0.323969
vt 0.654226 0.783050
vt 0.308724 0.780455
vt 0.497263 0.217380
vt 0.555136 0.417774
vt 0.446517 0.253064
vt 0.423959 0.093578
vt 0.395379 0.154733
vt 0.422472 0.199346
vt 0.521215 0.141796
vt 0.507314 0.150029
vt 0.444475 0.142538
vt 0.435634 0.116462
vt 0.489348 0.101619
s 1
usemtl apple06_lr
f 314/449/1 463/642/2 316/451/3
f 377/528/4 502/691/5 489/675/6
f 321/456/7 502/691/5 332/471/8
f 236/343/9 502/691/5 318/453/10
f 300/431/11 500/689/12 501/690/13
f 500/689/12 495/684/14 501/690/13
f 500/689/12 300/431/11 464/644/15
f 300/431/11 501/690/13 318/453/10
f 501/690/13 495/684/14 236/343/9
f 214/313/16 159/235/17 151/224/18
f 500/689/12 464/644/15 323/458/19
f 428/598/20 306/439/21 332/471/8
f 428/598/20 330/469/22 306/439/21
f 276/400/23 308/443/24 125/182/25
f 377/528/4 498/687/26 499/688/27
f 236/343/9 318/453/10 501/690/13
f 393/555/28 495/684/14 323/458/19
f 448/621/29 306/439/21 233/340/30
f 377/528/4 499/688/27 408/573/31
f 408/573/31 499/688/27 412/577/32
f 420/590/33 292/422/34 321/456/7
f 420/590/33 438/610/35 274/398/36
f 420/590/33 400/564/37 292/422/34
f 19/20/38 7/7/39 27/28/40
f 16/16/41 17/17/42 5/5/43
f 420/590/33 101/146/44 400/564/37
f 321/456/7 306/439/21 448/621/29
f 3/3/45 31/32/46 8/8/47
f 7/7/39 10/10/48 12/12/49
f 421/591/50 283/410/51 393/555/28
f 13/13/52 10/10/48 20/21/53
f 295/426/54 253/367/55 430/600/56
f 496/685/57 421/591/50 323/458/19
f 498/687/26 419/589/58 412/577/32
f 54/64/59 19/20/38 27/28/40
f 10/10/48 13/13/52 15/15/60
f 25/26/61 9/9/62 39/43/63
f 12/12/49 10/10/48 15/15/60
f 253/367/55 424/594/64 418/587/65
f 260/376/66 448/621/29 233/340/30
f 384/539/67 430/600/56 418/587/65
f 498/687/26 412/577/32 499/688/27
f 253/367/55 295/426/54 422/592/68
f 429/599/69 427/597/70 432/603/71
f 429/599/69 101/146/44 427/597/70
f 7/7/39 12/12/49 27/28/40
f 289/417/72 497/686/73 103/149/74
f 407/572/75 422/592/68 390/550/76
f 390/550/76 423/593/77 407/572/75
f 262/378/78 133/195/79 288/416/80
f 432/603/71 400/564/37 429/599/69
f 252/366/81 384/539/67 274/398/36
f 427/597/70 424/594/64 432/603/71
f 269/391/82 119/176/83 326/464/84
f 283/410/51 320/455/85 495/684/14
f 333/473/86 408/573/31 412/577/32
f 20/21/53 22/23/87 13/13/52
f 422/592/68 336/476/88 230/337/89
f 257/373/90 337/477/91 367/514/92
f 438/610/35 396/560/93 274/398/36
f 384/539/67 328/466/94 430/600/56
f 328/466/94 443/616/95 430/600/56
f 233/340/30 426/596/96 260/376/66
f 396/560/93 252/366/81 274/398/36
f 118/175/97 381/534/98 315/450/99
f 252/366/81 328/466/94 384/539/67
f 232/339/100 338/479/101 6/6/102
f 283/410/51 421/591/50 399/563/103
f 390/550/76 251/365/104 423/593/77
f 22/23/87 20/21/53 14/14/105
f 424/594/64 404/569/106 392/554/107
f 381/534/98 118/175/97 497/686/73
f 26/27/108 27/28/40 12/12/49
f 18/18/109 23/24/110 28/29/111
f 317/452/112 423/593/77 251/365/104
f 419/589/58 498/687/26 292/422/34
f 326/464/84 259/375/113 313/448/114
f 417/586/115 103/149/74 118/175/97
f 260/376/66 438/610/35 420/590/33
f 417/586/115 118/175/97 385/540/116
f 65/82/117 28/29/111 164/242/118
f 351/493/119 254/368/120 210/307/121
f 175/257/122 212/310/123 319/454/124
f 343/484/125 262/378/78 237/344/126
f 440/612/127 412/578/32 419/588/58
f 346/487/128 257/373/90 367/514/92
f 48/55/129 25/26/61 39/43/63
f 40/44/130 34/37/131 24/25/132
f 40/44/130 35/38/133 34/37/131
f 426/596/96 233/340/30 431/602/134
f 28/29/111 23/24/110 43/48/135
f 405/570/136 398/562/137 319/454/124
f 426/596/96 203/296/138 396/560/93
f 35/38/133 56/67/139 34/37/131
f 38/42/140 24/25/132 34/37/131
f 455/633/141 349/490/142 433/604/143
f 405/570/136 235/342/144 398/562/137
f 392/554/107 404/569/106 303/435/145
f 21/22/146 37/41/147 31/32/46
f 328/466/94 120/177/148 443/616/95
f 315/450/99 454/632/149 433/604/143
f 26/27/108 36/39/150 57/69/151
f 437/609/152 421/591/50 496/685/57
f 230/337/89 249/362/153 204/298/154
f 23/24/110 24/25/132 43/48/135
f 417/586/115 385/540/116 406/571/155
f 41/45/156 29/30/157 198/288/158
f 49/57/159 57/69/151 36/39/150
f 251/365/104 449/623/160 317/452/112
f 47/54/161 58/72/162 26/27/108
f 26/27/108 58/72/162 27/28/40
f 258/374/163 250/364/164 496/685/57
f 43/48/135 38/42/140 50/58/165
f 303/435/145 407/572/75 423/593/77
f 437/609/152 264/380/166 421/591/50
f 454/632/149 381/534/98 414/582/167
f 319/454/124 212/310/123 405/570/136
f 255/371/168 76/100/169 240/349/170
f 212/310/123 493/682/171 405/570/136
f 175/257/122 319/454/124 422/592/68
f 440/612/127 450/624/172 412/578/32
f 204/298/154 175/257/122 230/337/89
f 240/349/170 268/389/173 255/371/168
f 19/19/38 60/74/174 33/35/175
f 21/22/146 25/26/61 42/47/176
f 493/682/171 453/631/177 405/570/136
f 41/45/156 45/51/178 30/31/179
f 444/617/180 301/432/181 455/633/141
f 350/491/182 128/185/183 447/620/184
f 403/568/185 447/620/184 301/432/181
f 403/568/185 301/432/181 397/561/186
f 286/413/187 193/280/188 396/560/93
f 431/601/134 240/349/170 229/335/189
f 263/379/190 301/432/181 444/617/180
f 397/561/186 398/562/137 445/618/191
f 11/11/192 113/168/193 248/361/194
f 286/413/187 396/560/93 203/296/138
f 440/612/127 352/494/195 450/624/172
f 290/418/196 454/632/149 414/582/167
f 445/618/191 403/568/185 397/561/186
f 36/39/150 46/52/197 49/57/159
f 51/59/198 198/288/158 59/73/199
f 486/669/200 392/553/107 358/503/201
f 403/568/185 353/496/202 447/620/184
f 187/272/203 329/467/204 176/258/205
f 92/130/206 182/266/207 248/361/194
f 9/9/62 25/26/61 21/22/146
f 440/612/127 487/671/208 451/627/209
f 403/568/185 445/618/191 353/496/202
f 447/620/184 353/496/202 350/491/182
f 72/95/210 42/47/176 25/26/61
f 162/238/211 325/461/212 376/525/213
f 327/465/214 339/480/215 348/489/216
f 451/626/209 487/672/208 486/669/200
f 353/496/202 483/666/217 350/491/182
f 48/55/129 72/95/210 25/26/61
f 175/257/122 204/298/154 88/123/218
f 217/319/219 11/11/192 245/357/220
f 310/445/221 287/415/222 149/221/223
f 37/41/147 42/47/176 91/128/224
f 56/67/139 61/77/225 53/62/226
f 19/20/38 54/64/59 60/76/174
f 128/185/183 153/227/227 406/571/155
f 485/668/228 153/227/227 361/508/229
f 120/177/148 291/421/230 452/630/231
f 125/182/25 335/475/232 339/480/215
f 358/503/201 451/626/209 486/669/200
f 128/185/183 394/557/233 491/678/234
f 341/482/235 136/202/236 437/608/152
f 250/363/164 341/482/235 437/608/152
f 255/371/168 234/341/237 76/100/169
f 373/522/238 326/464/84 344/485/239
f 373/522/238 269/391/82 326/464/84
f 204/298/154 211/309/240 380/532/241
f 246/359/242 62/78/243 66/84/244
f 85/118/245 55/65/246 52/60/247
f 128/185/183 491/678/234 153/227/227
f 219/323/248 316/451/3 463/642/2
f 463/643/2 449/622/160 219/322/248
f 368/515/249 133/195/79 374/523/250
f 461/640/251 445/618/191 235/342/144
f 453/631/177 461/640/251 235/342/144
f 453/631/177 200/291/252 387/544/253
f 80/108/254 281/408/255 71/94/256
f 204/298/154 380/532/241 88/123/218
f 493/682/171 174/256/257 200/291/252
f 308/442/24 261/377/258 329/467/204
f 62/78/243 246/359/242 281/408/255
f 220/324/259 378/529/260 129/186/261
f 311/446/262 296/427/263 366/513/264
f 339/480/215 335/475/232 415/583/265
f 290/418/196 307/441/266 285/412/267
f 352/494/195 307/440/266 450/624/172
f 209/305/268 264/380/166 136/201/236
f 57/68/151 87/121/269 47/53/161
f 61/77/225 66/84/244 73/97/270
f 78/104/271 59/73/199 77/102/272
f 380/532/241 211/309/240 197/286/273
f 285/412/267 324/459/274 290/418/196
f 132/193/275 335/475/232 329/468/204
f 304/436/276 371/518/277 174/256/257
f 316/451/3 219/323/248 324/459/274
f 498/687/26 321/456/7 292/422/34
f 285/412/267 492/681/278 296/427/263
f 352/495/195 492/681/278 307/441/266
f 81/109/279 209/303/268 360/506/280
f 352/495/195 296/427/263 492/681/278
f 463/642/2 311/446/262 325/463/212
f 200/290/252 371/519/277 282/409/281
f 149/221/223 99/144/282 310/445/221
f 229/336/189 389/547/283 203/296/138
f 311/446/262 463/642/2 314/449/1
f 270/393/284 474/657/285 361/507/229
f 314/449/1 296/427/263 311/446/262
f 481/664/286 240/349/170 76/100/169
f 445/618/191 461/640/251 224/329/287
f 75/99/288 61/77/225 73/97/270
f 206/300/289 66/84/244 62/78/243
f 217/319/219 245/357/220 214/312/16
f 372/520/290 224/329/287 461/640/251
f 314/449/1 324/459/274 285/412/267
f 465/645/291 298/429/292 491/679/234
f 282/409/281 387/543/253 200/290/252
f 456/634/293 299/430/294 193/281/188
f 104/152/295 224/329/287 372/520/290
f 93/131/296 75/99/288 73/97/270
f 145/214/297 113/168/193 217/319/219
f 386/542/298 465/646/291 490/676/299
f 324/459/274 314/449/1 316/451/3
f 272/395/300 488/674/301 452/629/231
f 151/224/18 340/481/302 109/160/303
f 74/98/304 63/79/305 62/78/243
f 74/98/304 79/106/306 63/79/305
f 211/308/240 378/529/260 470/652/307
f 47/53/161 89/125/308 58/70/162
f 488/674/301 220/324/259 452/629/231
f 104/152/295 386/542/298 394/557/233
f 465/645/291 386/541/298 231/338/309
f 278/404/310 360/506/280 209/303/268
f 256/372/311 474/657/285 298/429/292
f 291/420/230 299/430/294 272/395/300
f 116/172/312 90/127/313 50/58/165
f 44/50/314 110/161/315 77/102/272
f 387/543/253 472/655/316 461/639/251
f 229/335/189 435/606/317 389/548/283
f 210/307/121 196/285/318 119/176/83
f 131/190/319 58/70/162 89/125/308
f 155/229/320 46/52/197 45/51/178
f 474/657/285 256/372/311 154/228/321
f 80/107/254 71/93/256 82/111/322
f 380/533/241 197/287/273 277/403/323
f 209/304/268 136/202/236 202/295/324
f 206/300/289 107/157/325 66/84/244
f 461/639/251 472/655/316 294/425/326
f 17/17/42 23/24/110 5/5/43
f 340/481/302 115/171/327 109/160/303
f 87/120/269 49/57/159 95/135/328
f 90/127/313 116/172/312 98/143/329
f 227/333/330 309/444/331 299/430/294
f 380/533/241 277/403/323 88/122/218
f 277/403/323 197/287/273 470/652/307
f 209/303/268 163/241/332 278/404/310
f 386/541/298 181/265/333 231/338/309
f 281/408/255 80/108/254 74/98/304
f 481/664/286 234/341/237 180/263/334
f 220/324/259 242/353/335 378/529/260
f 209/304/268 202/295/324 163/240/332
f 191/277/336 183/267/337 475/658/338
f 309/444/331 272/395/300 299/430/294
f 72/96/210 91/129/224 42/46/176
f 372/521/290 362/509/339 104/150/295
f 277/403/323 391/551/340 88/122/218
f 472/655/316 387/543/253 468/650/341
f 83/115/342 50/58/165 96/136/343
f 470/652/307 242/353/335 177/259/344
f 488/674/301 272/395/300 469/651/345
f 217/319/219 413/580/346 145/214/297
f 435/606/317 383/537/347 389/548/283
f 69/91/348 82/113/322 71/94/256
f 182/266/207 189/275/349 248/361/194
f 479/662/350 183/267/337 191/277/336
f 91/129/224 288/416/80 111/165/351
f 126/183/352 488/674/301 469/651/345
f 83/115/342 265/381/353 164/242/118
f 222/326/354 261/377/258 172/253/355
f 383/538/347 478/661/356 221/325/357
f 256/372/311 302/433/358 154/228/321
f 298/429/292 186/271/359 482/665/360
f 212/310/123 175/257/122 174/256/257
f 253/367/55 418/587/65 430/600/56
f 383/537/347 476/659/361 192/279/362
f 24/25/132 23/24/110 17/17/42
f 420/590/33 448/621/29 260/376/66
f 123/180/363 92/130/206 105/153/364
f 295/426/54 430/600/56 336/476/88
f 194/282/365 168/247/366 367/514/92
f 472/655/316 468/650/341 199/289/367
f 36/39/150 15/15/60 30/31/179
f 426/596/96 431/602/134 229/336/189
f 207/301/368 225/330/369 180/263/334
f 144/212/370 60/75/174 131/191/319
f 37/41/147 166/244/371 102/147/372
f 122/179/373 199/289/367 468/650/341
f 351/493/119 138/204/374 114/169/375
f 471/653/376 391/551/340 277/403/323
f 342/483/377 124/181/378 411/576/379
f 422/592/68 407/572/75 253/367/55
f 342/483/377 331/470/380 322/457/381
f 9/9/62 5/5/43 18/18/109
f 32/34/382 31/32/46 37/41/147
f 172/254/355 93/131/296 73/97/270
f 340/481/302 305/438/383 115/171/327
f 449/623/160 263/379/190 444/617/180
f 4/4/384 19/20/38 16/16/41
f 470/652/307 347/488/385 277/403/323
f 189/275/349 11/11/192 248/361/194
f 475/658/338 402/566/386 163/240/332
f 267/388/387 144/213/370 131/192/319
f 348/489/216 161/237/388 354/497/389
f 54/63/59 131/191/319 60/75/174
f 193/280/188 252/366/81 396/560/93
f 427/597/70 384/539/67 418/587/65
f 455/633/141 301/432/181 349/490/142
f 252/366/81 120/177/148 328/466/94
f 435/606/317 184/268/390 476/659/361
f 145/214/297 413/580/346 459/637/391
f 151/224/18 100/145/392 223/328/393
f 152/225/394 67/86/395 167/246/396
f 390/550/76 422/592/68 319/454/124
f 284/411/397 124/181/378 123/180/363
f 308/442/24 276/402/23 261/377/258
f 264/380/166 209/305/268 399/563/103
f 383/538/347 192/278/362 478/661/356
f 397/561/186 263/379/190 436/607/398
f 185/270/399 80/108/254 146/216/400
f 347/488/385 471/653/376 277/403/323
f 390/550/76 319/454/124 251/365/104
f 162/239/211 376/526/213 303/435/145
f 482/665/360 112/167/401 302/433/358
f 401/565/402 468/650/341 282/409/281
f 327/465/214 354/497/389 313/448/114
f 188/273/403 96/137/343 90/126/313
f 99/144/282 64/81/404 102/148/372
f 2/2/405 4/4/384 1/1/406
f 178/260/407 357/502/408 94/132/409
f 95/133/328 155/230/320 135/199/410
f 446/619/411 232/339/100 364/511/412
f 90/126/313 171/252/413 188/273/403
f 153/227/227 485/668/228 406/571/155
f 289/417/72 464/644/15 497/686/73
f 37/41/147 111/164/351 166/244/371
f 327/465/214 125/182/25 339/480/215
f 235/342/144 405/570/136 453/631/177
f 51/59/198 416/585/414 68/88/415
f 143/211/416 334/474/417 293/423/418
f 142/209/419 169/248/420 97/138/421
f 495/684/14 500/689/12 323/458/19
f 458/636/422 415/583/265 395/558/423
f 51/59/198 206/300/289 41/45/156
f 324/459/274 219/323/248 379/530/424
f 129/187/261 249/362/153 443/616/95
f 288/416/80 91/129/224 190/276/425
f 250/363/164 361/507/229 474/657/285
f 140/207/426 343/484/125 143/211/416
f 146/215/400 80/107/254 82/111/322
f 84/116/427 241/351/428 69/89/348
f 116/172/312 75/99/288 98/143/329
f 364/511/412 141/208/429 446/619/411
f 133/195/79 106/154/430 288/416/80
f 196/285/318 210/307/121 265/382/353
f 19/20/38 4/4/384 7/7/39
f 430/600/56 443/616/95 249/362/153
f 284/411/397 359/505/431 411/576/379
f 167/246/396 127/184/432 208/302/433
f 502/691/5 377/528/4 300/431/11
f 28/29/111 43/48/135 164/242/118
f 137/203/434 134/196/435 121/178/436
f 225/330/369 467/649/437 180/263/334
f 243/354/438 161/237/388 238/345/439
f 240/349/170 184/268/390 435/606/317
f 477/660/440 284/411/397 460/638/441
f 85/118/245 100/145/392 55/65/246
f 262/378/78 343/484/125 434/605/442
f 459/637/391 413/580/346 130/188/443
f 338/479/101 237/344/126 6/6/102
f 8/8/47 14/14/105 20/21/53
f 109/160/303 115/171/327 439/611/444
f 48/55/129 39/43/63 67/85/395
f 382/536/445 214/313/16 109/160/303
f 190/276/425 48/56/129 152/225/394
f 359/505/431 284/411/397 160/236/446
f 241/352/428 226/331/447 146/216/400
f 161/237/388 213/311/448 354/497/389
f 213/311/448 467/649/437 225/330/369
f 362/509/339 294/425/326 375/524/449
f 480/663/450 161/237/388 243/354/438
f 65/82/117 67/85/395 39/43/63
f 249/362/153 336/476/88 430/600/56
f 458/636/422 466/647/451 192/279/362
f 462/641/452 375/524/449 457/635/453
f 176/258/205 222/326/354 150/223/454
f 171/252/413 276/400/23 125/182/25
f 450/624/172 333/472/86 412/578/32
f 463/643/2 162/238/211 449/622/160
f 158/234/455 205/299/456 359/505/431
f 37/41/147 21/22/146 42/47/176
f 154/228/321 191/277/336 341/482/235
f 150/222/454 107/157/325 68/88/415
f 369/516/457 173/255/458 187/272/203
f 502/691/5 300/431/11 318/453/10
f 157/233/459 363/510/460 457/635/453
f 147/219/461 169/249/420 185/270/399
f 460/638/441 123/180/363 410/575/462
f 228/334/463 259/375/113 326/464/84
f 147/217/461 239/346/464 201/292/465
f 383/537/347 435/606/317 476/659/361
f 28/29/111 65/82/117 18/18/109
f 111/165/351 37/40/147 91/129/224
f 137/203/434 150/223/454 117/174/466
f 388/546/467 441/614/468 179/262/469
f 293/423/418 141/208/429 479/662/350
f 161/237/388 425/595/470 238/345/439
f 480/663/450 467/649/437 161/237/388
f 402/566/386 475/658/338 183/267/337
f 394/557/233 483/666/217 104/152/295
f 201/294/465 216/315/471 97/140/421
f 93/131/296 276/401/23 98/143/329
f 401/565/402 365/512/472 218/321/473
f 199/289/367 157/233/459 457/635/453
f 121/178/436 124/181/378 342/483/377
f 218/321/473 365/512/472 370/517/474
f 177/259/344 130/188/443 347/488/385
f 298/429/292 270/393/284 153/226/227
f 441/614/468 94/132/409 368/515/249
f 170/250/475 388/545/467 181/264/333
f 297/428/476 477/660/440 126/183/352
f 104/150/295 362/509/339 442/615/477
f 265/383/353 127/184/432 139/206/478
f 156/231/479 111/165/351 106/154/430
f 313/448/114 259/375/113 188/273/403
f 302/433/358 479/662/350 191/277/336
f 218/321/473 122/179/373 401/565/402
f 434/605/442 441/614/468 374/523/250
f 117/173/466 68/88/415 416/585/414
f 223/328/393 340/481/302 151/224/18
f 148/220/480 484/667/481 391/552/340
f 218/321/473 439/611/444 122/179/373
f 131/190/319 89/125/308 244/356/482
f 225/330/369 207/301/368 473/656/483
f 37/41/147 102/147/372 32/34/382
f 228/334/463 83/114/342 96/137/343
f 140/207/426 441/614/468 434/605/442
f 310/445/221 346/487/128 287/415/222
f 90/126/313 98/142/329 171/252/413
f 186/271/359 441/614/468 140/207/426
f 155/230/320 97/141/421 216/317/471
f 78/103/271 134/196/435 416/584/414
f 143/211/416 338/479/101 334/474/417
f 454/632/149 290/418/196 379/530/424
f 130/188/443 177/259/344 459/637/391
f 417/586/115 406/571/155 485/668/228
f 409/574/484 402/566/386 183/267/337
f 148/220/480 391/552/340 471/654/376
f 82/112/322 69/90/348 241/350/428
f 469/651/345 297/428/476 126/183/352
f 112/167/401 186/271/359 140/207/426
f 460/638/441 284/411/397 123/180/363
f 239/346/464 147/217/461 185/269/399
f 15/15/60 13/13/52 29/30/157
f 363/510/460 287/415/222 346/487/128
f 83/115/342 43/48/135 50/58/165
f 298/429/292 482/665/360 256/372/311
f 194/282/365 462/641/452 168/247/366
f 367/514/92 337/477/91 178/261/407
f 137/203/434 416/584/414 134/196/435
f 280/407/485 234/341/237 355/499/486
f 375/524/449 462/641/452 362/509/339
f 44/50/314 14/14/105 55/66/246
f 201/293/465 97/139/421 147/218/461
f 265/381/353 139/205/478 164/242/118
f 178/261/407 337/477/91 357/501/408
f 110/163/315 44/49/314 159/235/17
f 470/652/307 177/259/344 347/488/385
f 245/357/220 11/11/192 189/275/349
f 347/488/385 130/188/443 471/653/376
f 473/656/483 138/204/374 215/314/487
f 442/615/477 462/641/452 170/250/475
f 272/395/300 309/444/331 469/651/345
f 442/615/477 362/509/339 462/641/452
f 207/301/368 278/404/310 138/204/374
f 202/295/324 191/277/336 475/658/338
f 363/510/460 115/171/327 287/415/222
f 329/467/204 187/272/203 132/194/275
f 240/348/170 431/602/134 268/390/173
f 160/236/446 477/660/440 297/428/476
f 74/98/304 185/270/399 142/210/419
f 300/431/11 377/528/4 408/573/31
f 297/428/476 469/651/345 359/505/431
f 141/208/429 183/267/337 479/662/350
f 130/189/443 279/405/488 471/654/376
f 112/167/401 482/665/360 186/271/359
f 387/543/253 282/409/281 468/650/341
f 106/154/430 111/165/351 288/416/80
f 192/278/362 466/648/451 478/661/356
f 364/511/412 208/302/433 254/369/120
f 401/565/402 122/179/373 468/650/341
f 484/667/481 365/512/472 371/519/277
f 114/170/375 254/369/120 351/492/119
f 79/106/306 142/210/419 97/140/421
f 99/144/282 102/148/372 166/245/371
f 365/512/472 148/220/480 279/405/488
f 158/234/455 165/243/489 205/299/456
f 122/179/373 157/233/459 199/289/367
f 114/170/375 409/574/484 254/369/120
f 238/345/439 476/659/361 184/268/390
f 181/264/333 104/150/295 442/615/477
f 156/232/479 99/144/282 166/245/371
f 167/246/396 67/86/395 86/119/490
f 460/638/441 177/259/344 242/353/335
f 245/357/220 189/275/349 77/101/272
f 184/268/390 243/354/438 238/345/439
f 84/116/427 144/212/370 241/351/428
f 138/204/374 351/493/119 215/314/487
f 476/659/361 238/345/439 458/636/422
f 170/250/475 181/264/333 442/615/477
f 375/524/449 199/289/367 457/635/453
f 259/375/113 96/137/343 188/273/403
f 462/641/452 457/635/453 168/247/366
f 94/132/409 441/614/468 388/546/467
f 87/121/269 95/134/328 195/283/491
f 476/659/361 458/636/422 192/279/362
f 148/220/480 365/512/472 484/667/481
f 44/49/314 100/145/392 159/235/17
f 176/258/205 329/467/204 261/377/258
f 38/42/140 75/99/288 116/172/312
f 408/573/31 333/473/86 381/534/98
f 97/140/421 169/249/420 147/219/461
f 89/125/308 47/53/161 87/121/269
f 481/664/286 184/268/390 240/349/170
f 79/106/306 74/98/304 142/210/419
f 114/169/375 138/204/374 402/567/386
f 481/664/286 243/354/438 184/268/390
f 68/87/415 117/174/466 150/223/454
f 341/482/235 250/363/164 154/228/321
f 190/276/425 91/129/224 72/96/210
f 359/505/431 160/236/446 297/428/476
f 137/203/434 117/174/466 416/584/414
f 127/184/432 265/383/353 312/447/492
f 460/638/441 242/353/335 477/660/440
f 460/638/441 410/575/462 459/637/391
f 294/425/326 472/655/316 375/524/449
f 227/333/330 165/243/489 309/444/331
f 350/491/182 394/557/233 128/185/183
f 484/667/481 88/124/218 391/552/340
f 298/429/292 179/262/469 186/271/359
f 109/160/303 370/517/474 382/536/445
f 348/489/216 354/497/389 327/465/214
f 210/307/121 119/176/83 345/486/493
f 154/228/321 302/433/358 191/277/336
f 485/668/228 250/364/164 258/374/163
f 181/265/333 388/546/467 179/262/469
f 454/632/149 379/530/424 494/683/494
f 150/223/454 222/326/354 107/156/325
f 379/530/424 219/323/248 455/633/141
f 378/529/260 211/308/240 129/186/261
f 228/334/463 196/285/318 83/114/342
f 106/155/430 337/477/91 257/373/90
f 163/240/332 202/295/324 475/658/338
f 90/127/313 96/136/343 50/58/165
f 484/667/481 371/519/277 304/437/276
f 276/400/23 171/252/413 98/142/329
f 45/51/178 79/106/306 155/229/320
f 402/566/386 409/574/484 114/170/375
f 155/230/320 79/105/306 97/141/421
f 185/270/399 169/249/420 142/210/419
f 86/119/490 127/184/432 167/246/396
f 180/263/334 467/649/437 480/663/450
f 180/263/334 480/663/450 481/664/286
f 479/662/350 302/433/358 293/423/418
f 213/311/448 225/330/369 373/522/238
f 374/523/250 133/195/79 262/378/78
f 144/212/370 84/116/427 60/75/174
f 262/378/78 434/605/442 374/523/250
f 265/382/353 83/114/342 196/285/318
f 154/228/321 250/363/164 474/657/285
f 113/168/193 11/11/192 217/319/219
f 275/399/495 342/483/377 411/576/379
f 470/652/307 197/287/273 211/308/240
f 179/262/469 298/429/292 231/338/309
f 77/101/272 110/162/315 245/357/220
f 227/333/330 221/325/357 165/243/489
f 207/301/368 180/263/334 360/506/280
f 262/378/78 288/416/80 190/276/425
f 146/216/400 239/347/464 185/270/399
f 95/135/328 49/57/159 155/229/320
f 338/479/101 232/339/100 334/474/417
f 183/267/337 141/208/429 409/574/484
f 452/629/231 291/420/230 272/395/300
f 456/634/293 227/333/330 299/430/294
f 304/436/276 175/257/122 88/123/218
f 216/315/471 201/294/465 226/331/447
f 140/207/426 143/211/416 112/167/401
f 441/614/468 186/271/359 179/262/469
f 174/256/257 371/518/277 200/291/252
f 371/519/277 365/512/472 401/565/402
f 223/328/393 100/145/392 85/118/245
f 449/623/160 444/617/180 219/323/248
f 257/373/90 310/445/221 99/144/282
f 309/444/331 165/243/489 158/234/455
f 439/611/444 157/233/459 122/179/373
f 466/648/451 173/255/458 478/661/356
f 207/301/368 138/204/374 473/656/483
f 389/549/283 383/538/347 271/394/496
f 239/347/464 226/331/447 201/294/465
f 104/151/295 181/265/333 386/541/298
f 471/654/376 279/405/488 148/220/480
f 87/120/269 57/69/151 49/57/159
f 294/424/326 372/520/290 461/640/251
f 240/349/170 435/606/317 229/335/189
f 143/211/416 293/423/418 112/167/401
f 150/223/454 137/203/434 322/457/381
f 356/500/497 280/407/485 108/158/498
f 382/536/445 279/405/488 130/189/443
f 469/651/345 309/444/331 158/234/455
f 446/619/411 141/208/429 293/423/418
f 134/196/435 78/103/271 189/275/349
f 246/359/242 56/67/139 281/408/255
f 337/478/91 106/154/430 133/195/79
f 164/242/118 139/205/478 65/82/117
f 159/235/17 100/145/392 151/224/18
f 220/324/259 129/186/261 452/629/231
f 32/33/382 102/148/372 64/81/404
f 238/345/439 425/595/470 458/636/422
f 215/314/487 225/330/369 473/656/483
f 231/338/309 181/265/333 179/262/469
f 96/137/343 259/375/113 228/334/463
f 189/274/349 78/104/271 77/102/272
f 78/104/271 416/585/414 51/59/198
f 439/611/444 218/321/473 370/517/474
f 141/208/429 364/511/412 409/574/484
f 242/353/335 470/652/307 378/529/260
f 128/185/183 406/571/155 349/490/142
f 180/263/334 234/341/237 356/500/497
f 373/522/238 225/330/369 215/314/487
f 399/563/103 209/305/268 81/110/279
f 161/237/388 467/649/437 213/311/448
f 358/504/201 366/513/264 451/628/209
f 490/676/299 394/557/233 386/542/298
f 360/506/280 356/500/497 108/158/498
f 460/638/441 459/637/391 177/259/344
f 193/280/188 291/421/230 252/366/81
f 221/325/357 271/394/496 383/538/347
f 284/411/397 477/660/440 160/236/446
f 63/79/305 79/106/306 45/51/178
f 298/429/292 465/645/291 231/338/309
f 279/405/488 370/517/474 365/512/472
f 294/425/326 362/509/339 372/521/290
f 490/676/299 465/646/291 491/678/234
f 491/679/234 298/429/292 153/226/227
f 203/297/138 389/549/283 271/394/496
f 394/556/233 490/677/299 491/680/234
f 483/666/217 224/329/287 104/152/295
f 325/461/212 162/238/211 463/643/2
f 108/158/498 81/109/279 360/506/280
f 313/448/114 188/273/403 327/465/214
f 41/45/156 62/78/243 63/79/305
f 286/414/187 271/394/496 456/634/293
f 481/664/286 480/663/450 243/354/438
f 358/503/201 392/553/107 376/527/213
f 371/519/277 401/565/402 282/409/281
f 128/185/183 349/490/142 447/620/184
f 387/544/253 461/640/251 453/631/177
f 413/579/346 382/536/445 130/189/443
f 51/59/198 59/73/199 78/104/271
f 291/420/230 193/281/188 299/430/294
f 232/339/100 446/619/411 334/474/417
f 341/482/235 191/277/336 136/202/236
f 116/172/312 50/58/165 38/42/140
f 75/99/288 93/131/296 98/143/329
f 307/440/266 414/581/167 450/624/172
f 207/301/368 360/506/280 278/404/310
f 6/6/102 190/276/425 152/225/394
f 420/590/33 274/398/36 101/146/44
f 361/508/229 153/227/227 270/392/284
f 54/63/59 58/71/162 131/191/319
f 426/596/96 229/336/189 203/296/138
f 485/668/228 361/508/229 250/364/164
f 402/567/386 138/204/374 163/241/332
f 224/329/287 483/666/217 353/496/202
f 52/60/247 64/81/404 85/118/245
f 77/102/272 70/92/499 44/50/314
f 436/607/398 263/379/190 449/623/160
f 194/282/365 170/250/475 462/641/452
f 55/65/246 100/145/392 44/49/314
f 205/299/456 275/399/495 359/505/431
f 60/76/174 84/117/427 33/36/175
f 458/636/422 425/595/470 415/583/265
f 451/627/209 352/494/195 440/612/127
f 353/496/202 445/618/191 224/329/287
f 482/665/360 302/433/358 256/372/311
f 257/373/90 99/144/282 156/232/479
f 178/260/407 94/132/409 170/251/475
f 175/257/122 304/436/276 174/256/257
f 281/408/255 56/67/139 35/38/133
f 275/399/495 411/576/379 359/505/431
f 302/433/358 112/167/401 293/423/418
f 327/465/214 171/252/413 125/182/25
f 155/229/320 49/57/159 46/52/197
f 69/91/348 71/94/256 40/44/130
f 68/88/415 206/300/289 51/59/198
f 246/359/242 66/84/244 61/77/225
f 149/221/223 64/81/404 99/144/282
f 459/637/391 410/575/462 145/214/297
f 478/661/356 173/255/458 205/299/456
f 331/470/380 176/258/205 322/457/381
f 303/435/145 317/452/112 162/239/211
f 40/44/130 33/36/175 69/91/348
f 124/181/378 247/360/500 92/130/206
f 279/405/488 382/536/445 370/517/474
f 344/485/239 313/448/114 354/497/389
f 244/356/482 87/121/269 195/283/491
f 77/102/272 59/73/199 70/92/499
f 165/243/489 221/325/357 478/661/356
f 449/623/160 251/365/104 436/607/398
f 94/132/409 357/502/408 368/515/249
f 312/447/492 265/383/353 210/306/121
f 414/582/167 307/441/266 290/418/196
f 174/256/257 493/682/171 212/310/123
f 333/473/86 450/625/172 414/582/167
f 45/51/178 41/45/156 63/79/305
f 176/258/205 261/377/258 222/326/354
f 27/28/40 58/72/162 54/64/59
f 65/83/117 86/119/490 67/86/395
f 115/171/327 305/438/383 287/415/222
f 129/187/261 211/309/240 204/298/154
f 303/434/145 376/527/213 392/553/107
f 398/562/137 235/342/144 445/618/191
f 172/254/355 73/97/270 107/157/325
f 194/282/365 178/261/407 170/250/475
f 206/300/289 62/78/243 41/45/156
f 455/633/141 494/683/494 379/530/424
f 446/619/411 293/423/418 334/474/417
f 237/344/126 338/479/101 343/484/125
f 162/239/211 317/452/112 449/623/160
f 497/686/73 118/175/97 103/149/74
f 198/288/158 51/59/198 41/45/156
f 452/630/231 443/616/95 120/177/148
f 34/37/131 56/67/139 53/62/226
f 29/30/157 41/45/156 30/31/179
f 127/184/432 312/447/492 208/302/433
f 248/361/194 113/168/193 92/130/206
f 172/254/355 276/401/23 93/131/296
f 190/276/425 6/6/102 237/344/126
f 38/42/140 53/62/226 75/99/288
f 136/201/236 264/380/166 437/609/152
f 180/263/334 356/500/497 360/506/280
f 281/408/255 35/38/133 71/94/256
f 228/334/463 326/464/84 119/176/83
f 320/455/85 283/410/51 108/159/498
f 38/42/140 34/37/131 53/62/226
f 388/546/467 170/251/475 94/132/409
f 124/181/378 284/411/397 411/576/379
f 40/44/130 71/94/256 35/38/133
f 283/410/51 399/563/103 81/110/279
f 121/178/436 134/196/435 247/360/500
f 452/630/231 129/187/261 443/616/95
f 303/435/145 423/593/77 317/452/112
f 431/602/134 233/340/30 268/390/173
f 454/632/149 494/683/494 433/604/143
f 327/465/214 188/273/403 171/252/413
f 326/464/84 313/448/114 344/485/239
f 105/153/364 92/130/206 113/168/193
f 134/196/435 182/266/207 247/360/500
f 247/360/500 182/266/207 92/130/206
f 363/510/460 346/487/128 457/635/453
f 219/323/248 444/617/180 455/633/141
f 453/631/177 493/682/171 200/291/252
f 246/359/242 61/77/225 56/67/139
f 447/620/184 349/490/142 301/432/181
f 226/331/447 239/347/464 146/216/400
f 261/377/258 276/402/23 172/253/355
f 348/489/216 339/480/215 425/595/470
f 397/561/186 436/607/398 398/562/137
f 214/313/16 151/224/18 109/160/303
f 433/604/143 494/683/494 455/633/141
f 451/628/209 366/513/264 352/495/195
f 135/200/410 195/284/491 95/135/328
f 296/427/263 352/495/195 366/513/264
f 39/43/63 18/18/109 65/82/117
f 208/302/433 312/447/492 254/369/120
f 43/48/135 24/25/132 38/42/140
f 210/306/121 254/369/120 312/447/492
f 249/362/153 230/337/89 336/476/88
f 355/498/486 255/370/168 268/390/173
f 320/455/85 355/498/486 428/598/20
f 166/245/371 111/166/351 156/232/479
f 437/609/152 496/685/57 250/364/164
f 32/34/382 64/80/404 52/61/247
f 84/117/427 69/91/348 33/36/175
f 213/311/448 373/522/238 344/485/239
f 440/613/127 419/589/58 487/673/208
f 273/397/501 266/384/502 226/331/447
f 30/31/179 46/52/197 36/39/150
f 156/232/479 106/155/430 257/373/90
f 44/50/314 22/23/87 14/14/105
f 132/193/275 395/558/423 335/475/232
f 486/670/200 487/673/208 432/603/71
f 345/486/493 351/493/119 210/307/121
f 57/69/151 47/54/161 26/27/108
f 168/247/366 346/487/128 367/514/92
f 283/410/51 81/110/279 108/159/498
f 260/376/66 426/596/96 438/610/35
f 385/540/116 433/604/143 349/490/142
f 64/81/404 149/221/223 85/118/245
f 381/534/98 333/473/86 414/582/167
f 133/195/79 357/502/408 337/478/91
f 59/73/199 22/23/87 70/92/499
f 345/486/493 215/314/487 351/493/119
f 315/450/99 381/534/98 454/632/149
f 421/591/50 264/380/166 399/563/103
f 40/44/130 17/17/42 16/16/41
f 342/483/377 322/457/381 121/178/436
f 385/540/116 349/490/142 406/571/155
f 108/159/498 280/406/485 320/455/85
f 214/313/16 245/358/220 159/235/17
f 469/651/345 158/234/455 359/505/431
f 343/484/125 338/479/101 143/211/416
f 404/569/106 407/572/75 303/435/145
f 150/223/454 322/457/381 176/258/205
f 124/181/378 121/178/436 247/360/500
f 346/487/128 310/445/221 257/373/90
f 251/365/104 319/454/124 398/562/137
f 167/246/396 232/339/100 152/225/394
f 457/635/453 346/487/128 168/247/366
f 266/385/502 135/197/410 216/316/471
f 123/180/363 124/181/378 92/130/206
f 222/327/354 172/254/355 107/157/325
f 417/586/115 485/668/228 258/374/163
f 175/257/122 422/592/68 230/337/89
f 308/443/24 335/475/232 125/182/25
f 189/275/349 182/266/207 134/196/435
f 344/485/239 354/497/389 213/311/448
f 157/233/459 439/611/444 363/510/460
f 340/481/302 223/328/393 305/438/383
f 185/270/399 74/98/304 80/108/254
f 109/160/303 439/611/444 370/517/474
f 350/491/182 483/666/217 394/557/233
f 46/52/197 30/31/179 45/51/178
f 140/207/426 434/605/442 343/484/125
f 6/6/102 152/225/394 232/339/100
f 432/603/71 487/673/208 419/589/58
f 118/175/97 315/450/99 385/540/116
f 413/580/346 217/319/219 382/535/445
f 85/118/245 149/221/223 305/438/383
f 139/206/478 86/119/490 65/83/117
f 103/149/74 258/374/163 289/417/72
f 267/388/387 131/192/319 244/355/482
f 466/648/451 187/272/203 173/255/458
f 187/272/203 176/258/205 331/470/380
f 427/597/70 101/146/44 384/539/67
f 268/390/173 330/469/22 428/598/20
f 425/595/470 161/237/388 348/489/216
f 287/415/222 305/438/383 149/221/223
f 14/14/105 52/61/247 55/66/246
f 301/432/181 263/379/190 397/561/186
f 70/92/499 22/23/87 44/50/314
f 369/516/457 331/470/380 342/483/377
f 32/34/382 52/61/247 31/32/46
f 355/498/486 320/455/85 280/406/485
f 308/443/24 329/468/204 335/475/232
f 205/299/456 369/516/457 275/399/495
f 466/647/451 458/636/422 395/558/423
f 26/27/108 15/15/60 36/39/150
f 135/198/410 266/386/502 273/396/501
f 13/13/52 22/23/87 29/30/157
f 16/16/41 33/36/175 40/44/130
f 267/388/387 226/331/447 241/352/428
f 205/299/456 173/255/458 369/516/457
f 16/16/41 5/5/43 4/4/384
f 5/5/43 23/24/110 18/18/109
f 486/670/200 424/594/64 392/554/107
f 24/25/132 17/17/42 40/44/130
f 144/213/370 267/388/387 241/352/428
f 1/1/406 21/22/146 31/32/46
f 244/355/482 195/284/491 273/397/501
f 198/288/158 22/23/87 59/73/199
f 215/314/487 345/486/493 269/391/82
f 29/30/157 30/31/179 15/15/60
f 357/502/408 133/195/79 368/515/249
f 101/146/44 429/599/69 400/564/37
f 244/355/482 273/397/501 267/388/387
f 497/686/73 464/644/15 381/534/98
f 424/594/64 486/670/200 432/603/71
f 330/469/22 268/390/173 233/340/30
f 223/328/393 85/118/245 305/438/383
f 404/569/106 424/594/64 253/367/55
f 22/23/87 198/288/158 29/30/157
f 127/184/432 86/119/490 139/206/478
f 10/10/48 8/8/47 20/21/53
f 466/648/451 132/194/275 187/272/203
f 426/596/96 396/560/93 438/610/35
f 427/597/70 418/587/65 424/594/64
f 267/388/387 273/397/501 226/331/447
f 335/475/232 395/558/423 415/583/265
f 363/510/460 439/611/444 115/171/327
f 245/358/220 110/163/315 159/235/17
f 76/100/169 234/341/237 481/664/286
f 393/555/28 283/410/51 495/684/14
f 121/178/436 322/457/381 137/203/434
f 101/146/44 274/398/36 384/539/67
f 136/202/236 191/277/336 202/295/324
f 8/8/47 52/61/247 14/14/105
f 145/214/297 105/153/364 113/168/193
f 215/314/487 269/391/82 373/522/238
f 53/62/226 61/77/225 75/99/288
f 395/559/423 132/194/275 466/648/451
f 295/426/54 336/476/88 422/592/68
f 441/614/468 368/515/249 374/523/250
f 232/339/100 167/246/396 208/302/433
f 262/378/78 190/276/425 237/344/126
f 196/285/318 228/334/463 119/176/83
f 105/153/364 410/575/462 123/180/363
f 419/589/58 400/564/37 432/603/71
f 126/183/352 242/353/335 220/324/259
f 496/685/57 289/417/72 258/374/163
f 375/524/449 472/655/316 199/289/367
f 18/18/109 39/43/63 9/9/62
f 73/97/270 66/84/244 107/157/325
f 193/281/188 286/414/187 456/634/293
f 425/595/470 339/480/215 415/583/265
f 342/483/377 275/399/495 369/516/457
f 163/241/332 138/204/374 278/404/310
f 5/5/43 1/1/406 4/4/384
f 19/20/38 33/36/175 16/16/41
f 484/667/481 304/437/276 88/124/218
f 217/320/219 214/313/16 382/536/445
f 249/362/153 129/187/261 204/298/154
f 232/339/100 208/302/433 364/511/412
f 409/574/484 364/511/412 254/369/120
f 12/12/49 15/15/60 26/27/108
f 400/564/37 419/589/58 292/422/34
f 345/486/493 119/176/83 269/391/82
f 236/343/9 320/455/85 428/598/20
f 258/374/163 103/149/74 417/586/115
f 126/183/352 220/324/259 488/674/301
f 107/157/325 206/300/289 68/88/415
f 178/261/407 194/282/365 367/514/92
f 436/607/398 251/365/104 398/562/137
f 323/458/19 421/591/50 393/555/28
f 67/86/395 152/225/394 48/56/129
f 236/343/9 332/471/8 502/691/5
f 330/469/22 233/340/30 306/439/21
f 52/61/247 8/8/47 31/32/46
f 321/456/7 489/675/6 502/691/5
f 495/684/14 320/455/85 236/343/9
f 306/439/21 321/456/7 332/471/8
f 464/644/15 300/431/11 408/573/31
f 428/598/20 332/471/8 236/343/9
f 323/458/19 289/417/72 496/685/57
f 407/572/75 404/569/106 253/367/55
f 323/458/19 464/644/15 289/417/72
f 355/498/486 268/390/173 428/598/20
f 315/450/99 433/604/143 385/540/116
f 448/621/29 420/590/33 321/456/7
f 5/5/43 9/9/62 1/1/406
f 2/2/405 1/1/406 3/3/45
f 325/462/212 358/503/201 376/527/213
f 291/421/230 120/177/148 252/366/81
f 203/297/138 271/394/496 286/414/187
f 358/504/201 325/463/212 366/513/264
f 355/499/486 234/341/237 255/371/168
f 324/460/274 379/531/424 290/419/196
f 7/7/39 4/4/384 2/2/405
f 408/573/31 381/534/98 464/644/15
f 10/10/48 7/7/39 2/2/405
f 369/516/457 187/272/203 331/470/380
f 285/412/267 307/441/266 492/681/278
f 3/3/45 1/1/406 31/32/46
f 21/22/146 1/1/406 9/9/62
f 314/449/1 285/412/267 296/427/263
f 311/446/262 366/513/264 325/463/212
f 474/657/285 270/393/284 298/429/292
f 456/634/293 271/394/496 221/325/357
f 221/325/357 227/333/330 456/634/293
f 89/125/308 87/121/269 244/356/482
f 43/48/135 83/115/342 164/242/118
f 478/661/356 205/299/456 165/243/489
f 126/183/352 477/660/440 242/353/335
f 498/687/26 489/675/6 321/456/7
f 498/687/26 377/528/4 489/675/6
f 190/276/425 72/96/210 48/56/129
f 155/230/320 216/317/471 135/199/410
f 82/113/322 241/352/428 146/216/400
f 74/98/304 62/78/243 281/408/255
f 234/341/237 280/407/485 356/500/497
f 10/10/48 3/3/45 8/8/47
f 105/153/364 145/214/297 410/575/462
f 216/318/471 226/332/447 266/387/502
f 273/397/501 195/284/491 135/200/410
f 3/3/45 10/10/48 2/2/405
